<?xml version="1.0" standalone="no"?>
<!DOCTYPE svg PUBLIC "-//W3C//DTD SVG 1.1//EN" "http://www.w3.org/Graphics/SVG/1.1/DTD/svg11.dtd" >
<svg>
<metadata>
Created by FontForge 20090914 at Mon Aug 19 11:45:36 2019
 By www-data

Created by iconfont

</metadata>
<defs>
<font id="element" horiz-adv-x="1024" >
  <font-face 
    font-family="element"
    font-weight="400"
    font-stretch="normal"
    units-per-em="1024"
    panose-1="2 0 5 3 0 0 0 0 0 0"
    ascent="896"
    descent="-128"
    bbox="0 -102 1024 896.001"
    underline-thickness="0"
    underline-position="10"
    unicode-range="U+E6A0-U+E7CA"
  />
<missing-glyph 
 />
    <glyph glyph-name=".notdef" 
 />
    <glyph glyph-name="ice-cream-round" unicode="&#xe6a0;" 
d="M308 407l227 -226.999c6.66699 -6 14.167 -9 22.5 -9s15.833 3 22.5 9l204 204c37.333 39.333 56 84.5 56 135.5s-18.667 96.5 -56 136.5c-40 37.333 -85.5 56 -136.5 56s-96.167 -18.667 -135.5 -56l-204 -204c-6 -6.66699 -9 -14.334 -9 -23.001s3 -16 9 -22z
M444 180.001l-136.003 -134.997c-19.333 -18.667 -41.666 -27.834 -66.999 -27.501s-47.5 10 -66.5 29s-28.667 41.167 -29 66.5s8.83398 47.666 27.501 66.999l135 136l-45 45c-18 19.333 -27 42.166 -27 68.499s9 48.833 27 67.5l204 204c52.667 50 113 75 181 75
s128.333 -25 181 -75c50 -52.667 75 -113 75 -181s-25 -128.333 -75 -181l-204 -204c-18.667 -18.667 -41.167 -28 -67.5 -28s-49.166 9.33301 -68.499 28zM398.997 226.004l-44.999 44.999l-136 -136c-6 -6.66699 -9 -14.167 -9 -22.5s3.16699 -15.666 9.5 -21.999
s13.666 -9.5 21.999 -9.5s15.833 3 22.5 9zM647.998 610.003c6 -6.66699 8.99805 -14.167 8.99805 -22.5s-3 -15.833 -9 -22.5l-181 -181c-9.33301 -8.66699 -20 -11.5 -32 -8.5s-19.5 10.5 -22.5 22.5s-0.166992 22.333 8.5 31l181 181
c6.66699 6.66699 14.334 10 23.001 10s16.334 -3.33301 23.001 -10zM737.996 520.003c6.66699 -6.66699 10 -14.332 10 -22.999s-3.33301 -16.334 -10 -23.001l-181 -180c-8.66699 -8.66699 -18.834 -11.5 -30.501 -8.5s-19.167 10.5 -22.5 22.5
s-0.666016 22.333 8.00098 31l181 181c6 6 13.5 9 22.5 9s16.5 -3 22.5 -9z" />
    <glyph glyph-name="ice-cream-square" unicode="&#xe6a3;" 
d="M416 256h256c9.33301 0 17 3 23 9s9 13.667 9 23v448c0 9.33301 -3 17 -9 23s-13.667 9 -23 9h-320c-9.33301 0 -17 -3 -23 -9s-9 -13.667 -9 -23v-448c0 -9.33301 3 -17 9 -23s13.667 -9 23 -9h64zM608 192v-160c-0.666992 -27.333 -10 -50 -28 -68s-40.667 -27 -68 -27
s-50 9 -68 27s-27.333 40.667 -28 68v160h-64c-27.333 0.666992 -50 10 -68 28s-27.333 40.667 -28 68v448c0.666992 27.333 10 50 28 68s40.667 27.333 68 28h320c27.333 -0.666992 50 -10 68 -28s27.333 -40.667 28 -68v-448c-0.666992 -27.333 -10 -50 -28 -68
s-40.667 -27.333 -68 -28h-64zM544 192h-64v-160c0 -9.33301 3 -17 9 -23s13.667 -9 23 -9s17 3 23 9s9 13.667 9 23v160z" />
    <glyph glyph-name="lollipop" unicode="&#xe6a4;" 
d="M513 448c-2.66699 18 0.666016 34.001 9.99902 48.001s22.833 22.833 40.5 26.5s33.5 1 47.5 -8s23 -22.333 27 -40s1.33301 -33.667 -8 -48s-22.666 -23.833 -39.999 -28.5c11.333 -18.667 26.833 -31.834 46.5 -39.501s40 -8.5 61 -2.5s38 17.333 51 34
s19.5 36 19.5 58h64c-1.33301 -45.333 -17 -83 -47 -113s-67.667 -45.667 -113 -47c-45.333 1.33301 -83 17 -113 47s-45.667 67.667 -47 113h1zM386 478.001c10 -62.667 37.001 -114.168 81.001 -154.501s97.333 -62.833 160 -67.5c62.667 -2 118 15 166 51
s80 84.333 96 145c13.333 61.333 6.83301 118.833 -19.5 172.5s-67.833 94.167 -124.5 121.5c-58 24.667 -115.833 29 -173.5 13s-104.834 -49.667 -141.501 -101c40 27.333 83.333 42.5 130 45.5s91.5 -6.66699 134.5 -29s76.5 -53.5 100.5 -93.5s36.333 -84.333 37 -133
h-64c-1.33301 51.333 -18.333 94.833 -51 130.5s-74.667 55.834 -126 60.501c-51.333 3.33301 -96 -10 -134 -40s-61.667 -70.333 -71 -121zM492.001 228l-206.001 -205.999c-20 -18 -42.5 -26.833 -67.5 -26.5s-47 10 -66 29s-28.667 41 -29 66s8.5 47.5 26.5 67.5l206 206
c-36 72.667 -45.333 146.167 -28 220.5s58.333 136.166 123 185.499c66 46.667 137.167 67 213.5 61s143.5 -37 201.5 -93c56 -58 87 -125.167 93 -201.5s-14.333 -147.5 -61 -213.5c-49.333 -64.667 -111.166 -105.667 -185.499 -123s-147.833 -8 -220.5 28zM438 264.001
c-16.667 14 -32 29.333 -46 46l-197 -198c-8.66699 -8.66699 -11.334 -18.834 -8.00098 -30.501s10.833 -19.167 22.5 -22.5s21.834 -0.666016 30.501 8.00098z" />
    <glyph glyph-name="potato-strips" unicode="&#xe6a5;" 
d="M608 672l0.000976562 64c0 9.33301 -3 17 -9 23s-13.667 9 -23 9s-17 -3 -23 -9s-9 -13.667 -9 -23v-336h27c13.333 0 25.666 4 36.999 12v260zM709.001 512c-13.333 0 -25.667 -4 -37 -12v12h64v160c0 9.33301 -3 17 -9 23s-13.667 9 -23 9s-17 -3 -23 -9
s-9 -13.667 -9 -23v-160h37zM784 512c14 0 27.1748 -3.00293 39.5078 -9.00293s23 -14.333 32 -25s15.167 -22.5 18.5 -35.5s3.66602 -26.5 0.999023 -40.5l-60 -324c-4.66699 -22.667 -15.667 -41.167 -33 -55.5s-38 -21.833 -62 -22.5h-416
c-24 0.666992 -44.667 8.16699 -62 22.5s-28.333 32.833 -33 55.5l-60 324c-2.66699 14 -2.33398 27.5 0.999023 40.5s9.5 24.833 18.5 35.5s19.667 19 32 25s25.5 9 39.5 9h-16v160c0.666992 24.667 8.66699 45.834 24 63.501s35.166 28 59.499 31
s46.166 -1.83301 65.499 -14.5s32.666 -31 39.999 -55c22 8.66699 44.333 9.33398 67 2.00098v37c0.666992 24.667 8.66699 45.834 24 63.501s35.166 28 59.499 31s46.166 -1.83301 65.499 -14.5s32.666 -31 39.999 -55c14.667 6 29.834 8.16699 45.501 6.5
s30.167 -7 43.5 -16s23.666 -20.5 30.999 -34.5s11 -29 11 -45v-160h-16zM671.008 383.997c-12.667 -15.333 -27.6699 -27.166 -45.0029 -35.499s-35.666 -12.5 -54.999 -12.5h-118c-19.333 0 -37.666 4.16699 -54.999 12.5s-32.333 20.166 -45 35.499h-1v2
c-4 4.66699 -7.33301 9.66699 -10 15l-27 47h-75c-8.66699 0 -16 -3.5 -22 -10.5s-8 -14.833 -6 -23.5l29 -158h542l29 158c2 8.66699 0 16.5 -6 23.5s-13.333 10.5 -22 10.5h-75l-27 -47c-3.33301 -5.33301 -6.66602 -10.333 -9.99902 -15v-2h-1zM480.005 607.997
c0 9.33301 -2.99902 17 -8.99902 23s-13.667 9 -23 9s-17 -3 -23 -9s-9 -13.667 -9 -23v-196c11.333 -8 23.666 -12 36.999 -12h27v208zM352.006 511.997l0.000976562 160c0 9.33301 -3 17 -9 23s-13.667 9 -23 9s-17 -3 -23 -9s-9 -13.667 -9 -23v-160h64h-37
c13.333 0 25.666 -4 36.999 -12v12zM253.007 191.997l19 -102c2 -7.33301 5.83301 -13.5 11.5 -18.5s12.5 -7.5 20.5 -7.5h416c8 0 14.833 2.5 20.5 7.5s9.5 11.167 11.5 18.5l19 102h-518z" />
    <glyph glyph-name="milk-tea" unicode="&#xe6a6;" 
d="M416 768l0.00195312 32c0.666992 27.333 10 50 28 68s40.667 27.333 68 28h128c9.33301 0 17 -3 23 -9s9 -13.667 9 -23s-3 -17 -9 -23s-13.667 -9 -23 -9h-128c-9.33301 0 -17 -3 -23 -9s-9 -13.667 -9 -23v-32h320c26 -0.666992 48 -9.33398 66 -26.001
s27.667 -38 29 -64s-5.83398 -48.5 -21.501 -67.5s-36.167 -30.167 -61.5 -33.5l-40 -581c-1.33301 -17.333 -8 -31.5 -20 -42.5s-26.667 -16.833 -44 -17.5h-392c-17.333 0.666992 -32 6.5 -44 17.5s-18.667 25.167 -20 42.5l-40 581
c-25.333 3.33301 -45.833 14.5 -61.5 33.5s-22.834 41.5 -21.501 67.5s11 47.333 29 64s40 25.334 66 26.001h192zM276.002 576l40 -575.999h392l5 71c-53.333 14.667 -95.333 43.167 -126 85.5s-44.667 91.166 -42 146.499c4.66699 55.333 25.167 102 61.5 140
s81.833 60.667 136.5 68l5 65h-472zM224.002 640.001h576c9.33301 0 17 3 23 9s9 13.667 9 23s-3 17 -9 23s-13.667 9 -23 9h-576c-9.33301 0 -17 -3 -23 -9s-9 -13.667 -9 -23s3 -17 9 -23s13.667 -9 23 -9zM717.002 136.001l22.002 308.997
c-36.667 -7.33301 -66.834 -24.166 -90.501 -50.499s-36.834 -58.166 -39.501 -95.499s6 -70.666 26 -99.999s47.333 -50.333 82 -63z" />
    <glyph glyph-name="ice-drink" unicode="&#xe6a7;" 
d="M512 448v-128h240l16 128h-256zM448 448h-192l16 -128h176v128zM512 703v-191.001h248c-16 57.333 -46.5 103.333 -91.5 138s-97.167 52.334 -156.5 53.001zM448 694.999c-45.333 -12 -84.167 -34.168 -116.5 -66.501s-54.833 -71.166 -67.5 -116.499h184v183z
M511.999 766.998c77.333 -1.33301 144.669 -25.166 202.002 -71.499s94.333 -107.5 111 -183.5h71c9.33301 0 17 -3 23 -9s9 -13.667 9 -23s-3 -17 -9 -23s-13.667 -9 -23 -9h-64l-57 -456c-2.66699 -16 -9.83398 -29.167 -21.501 -39.5s-25.5 -15.833 -41.5 -16.5h-400
c-16 0.666992 -29.833 6.16699 -41.5 16.5s-18.834 23.5 -21.501 39.5l-57 456h-64c-9.33301 0 -17 3 -23 9s-9 13.667 -9 23s3 17 9 23s13.667 9 23 9h71c13.333 63.333 42.333 117.166 87 161.499s98.667 73.5 162 87.5v39c0.666992 27.333 10 50 28 68
s40.667 27.333 68 28h128c9.33301 0 17 -3 23 -9s9 -13.667 9 -23s-3 -17 -9 -23s-13.667 -9 -23 -9h-128c-9.33301 0 -17 -3 -23 -9s-9 -13.667 -9 -23v-33zM744.002 255.998h-464l32 -256h400z" />
    <glyph glyph-name="ice-tea" unicode="&#xe6a9;" 
d="M198 636c16 76.667 52.6729 138.834 110.006 186.501s125.333 72.167 204 73.5c78.667 -1.33301 146.667 -25.833 204 -73.5s94 -109.834 110 -186.501c21.333 -6 38.333 -17.333 51 -34s19 -36 19 -58v-64c-0.666992 -22 -7.33398 -41.5 -20.001 -58.5
s-30 -28.5 -52 -34.5l-49 -395c-2.66699 -16 -9.83398 -29.167 -21.501 -39.5s-25.834 -15.833 -42.501 -16.5h-398c-16.667 0.666992 -30.834 6.16699 -42.501 16.5s-18.834 23.5 -21.501 39.5l-49 395c-22 6 -39.333 17.5 -52 34.5s-19.334 36.5 -20.001 58.5v64
c0 22 6.33301 41.333 19 58s29.667 28 51 34zM264.006 640h496c-16 57.333 -46.5 103.333 -91.5 138s-97.167 52.667 -156.5 54c-59.333 -1.33301 -111.5 -19.333 -156.5 -54s-75.5 -80.667 -91.5 -138zM759.006 384h-494l48 -384h398zM224.006 448h576c9.33301 0 17 3 23 9
s9 13.667 9 23v64c0 9.33301 -3 17 -9 23s-13.667 9 -23 9h-576c-9.33301 0 -17 -3 -23 -9s-9 -13.667 -9 -23v-64c0 -9.33301 3 -17 9 -23s13.667 -9 23 -9zM384.006 256h64v-64h-64v64zM576.006 192h64v-64h-64v64zM448.006 128h64v-64h-64v64zM512.006 320h64v-64h-64v64
z" />
    <glyph glyph-name="coffee" unicode="&#xe6aa;" 
d="M823 704h14.002c8 0 14.833 -2.5 20.5 -7.5s9.16699 -11.5 10.5 -19.5l22 -128c1.33301 -9.33301 -1.16699 -17.833 -7.5 -25.5s-14.5 -11.5 -24.5 -11.5h-49l-39 -546c-0.666992 -8.66699 -4 -15.834 -10 -21.501s-13.333 -8.5 -22 -8.5h-452
c-8.66699 0 -16 2.83301 -22 8.5s-9.33301 12.834 -10 21.501l-39 546h-49c-10 0 -18.167 3.83301 -24.5 11.5s-8.83301 16.167 -7.5 25.5l22 128c1.33301 8 4.83301 14.5 10.5 19.5s12.5 7.5 20.5 7.5h14l-7 94c0 9.33301 3.16699 17.333 9.5 24s13.833 10 22.5 10h571
c9.33301 0 17.166 -3.33301 23.499 -10s9.16602 -14.667 8.49902 -24zM758.002 704l5 64h-502l4 -64h493zM210.002 576h610l-10 64h-596l-10 -64h6zM279.002 512l37 -512h392l37 512h-466z" />
    <glyph glyph-name="orange" unicode="&#xe6ab;" 
d="M544 1c40 3.33301 78.332 12.667 114.999 28s70.334 36 101.001 62l-183 183c-10 -6 -21 -10.667 -33 -14v-259zM804.999 136.001c26 30.667 46.668 64.333 62.001 101s24.666 75 27.999 115h-259c-3.33301 -12 -8 -23 -14 -33zM895 416
c-3.33301 40 -12.667 78.332 -28 114.999s-36 70.334 -62 101.001l-183 -183c6 -10 10.667 -21 14 -33h259zM759.999 676.999c-30.667 26 -64.333 46.668 -101 62.001s-75 24.666 -115 27.999v-259c12 -3.33301 23 -8 33 -14zM480 767
c-40 -3.33301 -78.332 -12.667 -114.999 -28s-70.334 -36 -101.001 -62l183 -183c10 6 21 10.667 33 14v259zM219.001 631.999c-26 -30.667 -46.668 -64.333 -62.001 -101s-24.666 -75 -27.999 -115h259c3.33301 12 8 23 14 33zM129 352
c3.33301 -40 12.667 -78.332 28 -114.999s36 -70.334 62 -101.001l183 183c-6 10.667 -10.667 21.667 -14 33h-259zM264.001 91.001c30.667 -26 64.333 -46.668 101 -62.001s75 -24.666 115 -27.999v259c-11.333 3.33301 -22.333 8 -33 14zM512 -64
c-126.667 3.33301 -232.167 47.166 -316.5 131.499s-128.166 189.833 -131.499 316.5c3.33301 126.667 47.166 232.167 131.499 316.5s189.833 128.166 316.5 131.499c126.667 -3.33301 232.167 -47.166 316.5 -131.499s128.166 -189.833 131.499 -316.5
c-3.33301 -126.667 -47.166 -232.167 -131.499 -316.5s-189.833 -128.166 -316.5 -131.499zM512 320c18 0.666992 33 7 45 19s18 27 18 45s-6 33 -18 45s-27 18 -45 18s-33 -6 -45 -18s-18 -27 -18 -45s6 -33 18 -45s27 -18.333 45 -19z" />
    <glyph glyph-name="pear" unicode="&#xe6ac;" 
d="M542 637c-2.66699 -8 -5.66992 -16.334 -9.00293 -25.001c-4 -11.333 -11.833 -18.166 -23.5 -20.499s-21.667 1 -30 10s-10.5 19.167 -6.5 30.5l1 3c-32.667 -8 -59.834 -23.667 -81.501 -47s-35.167 -51.333 -40.5 -84l-18 -103l-20 -15
c-29.333 -21.333 -51.666 -46 -66.999 -74s-23 -57.333 -23 -88c2 -62 29.833 -114.333 83.5 -157s121.834 -65 204.501 -67c82.667 2 150.834 24.333 204.501 67s81.5 95 83.5 157c0 30.667 -7.66699 60 -23 88s-37.666 52.667 -66.999 74l-20 15l-18 103
c-6 34 -20.667 63 -44 87s-52 39.333 -86 46zM501.997 703.999c8 15.333 16.6689 30.001 26.002 44.001c23.333 34 49.666 59.667 78.999 77c8 4 16 5 24 3s14.333 -6.83301 19 -14.5s6 -15.667 4 -24s-7 -14.833 -15 -19.5c-20 -12.667 -39.333 -32.334 -58 -59.001
l-10 -15c43.333 -12 79.666 -34.167 108.999 -66.5s48 -70.5 56 -114.5l12 -78c36 -26.667 64.167 -58.167 84.5 -94.5s30.833 -75.833 31.5 -118.5c-2.66699 -81.333 -37 -149.166 -103 -203.499s-149 -82.5 -249 -84.5c-100 2 -183 30.167 -249 84.5
s-100.333 122.166 -103 203.499c0.666992 42.667 11.167 82.167 31.5 118.5s48.5 67.833 84.5 94.5l12 78c10 53.333 34.5 97.333 73.5 132s85.833 53.667 140.5 57z" />
    <glyph glyph-name="apple" unicode="&#xe6ad;" 
d="M600 692c21.333 5.33301 42.6641 7.00098 63.9971 5.00098h3c15.333 -0.666992 29 -2.16699 41 -4.5s24.667 -6.5 38 -12.5c38 -15.333 75.333 -45 112 -89c48 -62.667 68.833 -145.334 62.5 -248.001s-38.833 -194 -97.5 -274l-31 -40
c-9.33301 -12 -19.333 -23.667 -30 -35c-15.333 -16.667 -31.833 -29.167 -49.5 -37.5s-37.834 -12.5 -60.501 -12.5c-15.333 -0.666992 -29.5 0.5 -42.5 3.5s-26.833 7.83301 -41.5 14.5l-7 3c-10 4.66699 -18.333 7.83398 -25 9.50098s-14.167 2.5 -22.5 2.5
s-16.166 -0.833008 -23.499 -2.5s-16.333 -5.16699 -27 -10.5l-6 -2c-14 -6 -26.833 -10.667 -38.5 -14s-24.5 -5.33301 -38.5 -6c-36 -1.33301 -67.333 8.66699 -94 30s-55.334 55.666 -86.001 102.999c-49.333 73.333 -80.333 154.833 -93 244.5s0 170.167 38 241.5
c23.333 41.333 54.333 73.833 93 97.5s81 36.167 127 37.5c16 0.666992 31.833 -1 47.5 -5s33.167 -10 52.5 -18l28 -11l9 -3c16.667 20 28.334 36.667 35.001 50c13.333 26.667 27 60.334 41 101.001c2.66699 8.66699 7.83398 14.834 15.501 18.501
s15.834 4.16699 24.501 1.5s14.834 -7.83398 18.501 -15.501s4.16699 -15.834 1.5 -24.501c-12 -38 -24.667 -70.667 -38 -98zM547.998 614.001c-14 -18 -31.332 -37.667 -51.999 -59c-6 -6 -13.333 -9.16699 -22 -9.5s-16.167 2.5 -22.5 8.5s-9.66602 13.333 -9.99902 22
s2.5 16.334 8.5 23.001l12 13c-14 6 -29.167 11.833 -45.5 17.5s-33.166 8.5 -50.499 8.5c-35.333 -0.666992 -68 -10.334 -98 -29.001s-54.333 -44 -73 -76c-34.667 -68 -44.167 -142.167 -28.5 -222.5s42.5 -148.166 80.5 -203.499
c17.333 -27.333 36.666 -51.833 57.999 -73.5s45.666 -32.834 72.999 -33.501c24.667 2.66699 46 8.83398 64 18.501s42 15.167 72 16.5c30 -1.33301 53.833 -7 71.5 -17s39.5 -15.667 65.5 -17c26.667 0.666992 48.5 10 65.5 28s37.5 43.333 61.5 76
c53.333 73.333 81.833 154.5 85.5 243.5s-12.833 157.5 -49.5 205.5c-36.667 41.333 -67.834 66.166 -93.501 74.499s-45.167 11.833 -58.5 10.5c-20.667 2 -40.667 0 -60 -6s-37.333 -12.333 -54 -19z" />
    <glyph glyph-name="cherry" unicode="&#xe6ae;" 
d="M261 446c14 70 35 129.33 63 177.997c24 40.667 61.667 88.667 113 144h-117c-9.33301 0 -17 3 -23 9s-9 13.667 -9 23s3 17 9 23s13.667 9 23 9h384c9.33301 0 17 -3 23 -9s9 -13.667 9 -23s-3 -17 -9 -23s-13.667 -9 -23 -9h-149
c14.667 -39.333 41 -86.666 79 -141.999c24 -34 45 -60.5 63 -79.5s32.667 -30.5 44 -34.5c58.667 -2.66699 108.334 -23.167 149.001 -61.5s63.667 -86.833 69 -145.5c3.33301 -59.333 -12.167 -111 -46.5 -155s-80.5 -71.667 -138.5 -83c-58 -8.66699 -110.667 2 -158 32
s-79.333 73 -96 129c-14.667 57.333 -9.33398 111 15.999 161s65.333 86 120 108c-22.667 23.333 -47.334 54.333 -74.001 93c-39.333 56 -67.666 105.667 -84.999 149c-55.333 -58 -94.5 -107 -117.5 -147s-40.833 -89 -53.5 -147
c59.333 -11.333 106.166 -39.666 140.499 -84.999s49.166 -98 44.499 -158c-7.33301 -59.333 -32.166 -107.833 -74.499 -145.5s-93.5 -56.5 -153.5 -56.5c-60.667 2.66699 -111.167 23.834 -151.5 63.501s-62.833 89.5 -67.5 149.5
c-1.33301 60 16.334 111.833 53.001 155.5s84.667 69.5 144 77.5zM288 63.9971c45.333 1.33301 83 17 113 47s45.667 67.667 47 113c-1.33301 45.333 -17 83 -47 113s-67.667 45.667 -113 47c-45.333 -1.33301 -83 -17 -113 -47s-45.667 -67.667 -47 -113
c1.33301 -45.333 17 -83 47 -113s67.667 -45.667 113 -47zM736 127.997c45.333 1.33301 83 17 113 47s45.667 67.667 47 113c-1.33301 45.333 -17 83 -47 113s-67.667 45.667 -113 47c-45.333 -1.33301 -83 -17 -113 -47s-45.667 -67.667 -47 -113
c1.33301 -45.333 17 -83 47 -113s67.667 -45.667 113 -47z" />
    <glyph glyph-name="watermelon" unicode="&#xe6af;" 
d="M683 296l-44 -163l-61 16l53 199l-55 55l-158 -159l-46 46l159 158l-56 56l-198 -54l-17 62l163 44l-140 140c-64.667 -79.333 -95 -167.333 -91 -264s41.333 -182 112 -256c74 -70.667 159.333 -108 256 -112s184.667 26.333 264 91zM915 155
c-56.667 -64 -124.167 -108.5 -202.5 -133.5s-158.833 -27.833 -241.5 -8.5c-82.667 20.667 -153.167 60.167 -211.5 118.5s-97.833 128.833 -118.5 211.5c-19.333 82.667 -16.5 163.167 8.5 241.5s69.5 145.833 133.5 202.5z" />
    <glyph glyph-name="grape" unicode="&#xe6b0;" 
d="M544 701c19.333 -4 37.166 -11.167 53.499 -21.5s30.5 -23.5 42.5 -39.5c22.667 29.333 51.167 48.666 85.5 57.999s68.666 7 102.999 -7s60.333 -36.5 78 -67.5s24 -64.833 19 -101.5s-20.167 -67.5 -45.5 -92.5s-56.666 -39.833 -93.999 -44.5
c10.667 -23.333 15.334 -47.666 14.001 -72.999s-8.33301 -49.166 -21 -71.499s-29.5 -40.333 -50.5 -54s-44.5 -22.167 -70.5 -25.5c14.667 -34.667 17.667 -69.334 9 -104.001s-27.667 -63.5 -57 -86.5s-62 -34.5 -98 -34.5s-68.667 11.5 -98 34.5
s-48.333 51.833 -57 86.5s-5.66699 69.334 9 104.001c-26 3.33301 -49.5 11.833 -70.5 25.5s-37.833 31.667 -50.5 54s-19.667 46.166 -21 71.499s3.33398 49.666 14.001 72.999c-37.333 4.66699 -68.666 19.5 -93.999 44.5s-40.5 55.833 -45.5 92.5s1.33301 70.5 19 101.5
s43.667 53.5 78 67.5s68.666 16.333 102.999 7s62.833 -28.666 85.5 -57.999c12 16 26.167 29.167 42.5 39.5s34.166 17.5 53.499 21.5v67h-64c-9.33301 0 -17 3 -23 9s-9 13.667 -9 23s3 17 9 23s13.667 9 23 9h192c9.33301 0 17 -3 23 -9s9 -13.667 9 -23s-3 -17 -9 -23
s-13.667 -9 -23 -9h-64v-67zM512 448c27.333 0.666992 50 10 68 28s27 40.667 27 68s-9 50 -27 68s-40.667 27 -68 27s-50 -9 -68 -27s-27 -40.667 -27 -68s9 -50 27 -68s40.667 -27.333 68 -28zM256 448c27.333 0.666992 50 10 68 28s27 40.667 27 68s-9 50 -27 68
s-40.667 27 -68 27s-50 -9 -68 -27s-27 -40.667 -27 -68s9 -50 27 -68s40.667 -27.333 68 -28zM384 224c27.333 0.666992 50 10 68 28s27 40.667 27 68s-9 50 -27 68s-40.667 27 -68 27s-50 -9 -68 -27s-27 -40.667 -27 -68s9 -50 27 -68s40.667 -27.333 68 -28zM512 0
c27.333 0.666992 50 10 68 28s27 40.667 27 68s-9 50 -27 68s-40.667 27 -68 27s-50 -9 -68 -27s-27 -40.667 -27 -68s9 -50 27 -68s40.667 -27.333 68 -28zM640 224c27.333 0.666992 50 10 68 28s27 40.667 27 68s-9 50 -27 68s-40.667 27 -68 27s-50 -9 -68 -27
s-27 -40.667 -27 -68s9 -50 27 -68s40.667 -27.333 68 -28zM768 448c27.333 0.666992 50 10 68 28s27 40.667 27 68s-9 50 -27 68s-40.667 27 -68 27s-50 -9 -68 -27s-27 -40.667 -27 -68s9 -50 27 -68s40.667 -27.333 68 -28z" />
    <glyph glyph-name="refrigerator" unicode="&#xe6b1;" 
d="M256 448h512v288c0 9.33301 -3 17 -9 23s-13.667 9 -23 9h-448c-9.33301 0 -17 -3 -23 -9s-9 -13.667 -9 -23v-288zM256 384v-352c0 -9.33301 3 -17 9 -23s13.667 -9 23 -9h448c9.33301 0 17 3 23 9s9 13.667 9 23v352h-512zM288 832h448c27.333 -0.666992 50 -10 68 -28
s27.333 -40.667 28 -68v-704c-0.666992 -27.333 -10 -50 -28 -68s-40.667 -27.333 -68 -28h-448c-27.333 0.666992 -50 10 -68 28s-27.333 40.667 -28 68v704c0.666992 27.333 10 50 28 68s40.667 27.333 68 28zM320 608h64v-96h-64v96zM320 320h64v-96h-64v96z" />
    <glyph glyph-name="goblet-square-full" unicode="&#xe6b2;" 
d="M256 625l16.001 -9.99805l13 -9c35.333 -20.667 73.666 -30.667 114.999 -30c14.667 -0.666992 28.5 2.16602 41.5 8.49902s29.5 17.166 49.5 32.499v0c26 20 48.667 34.333 68 43s41 12.667 65 12c27.333 0 52.5 -5 75.5 -15s45.167 -24 66.5 -42l2 -2v155h-512v-143z
M257.001 549.002c4.66699 -68.667 27.833 -123.669 69.5 -165.002s103.5 -62.666 185.5 -63.999c78.667 0.666992 138.667 20 180 58s65.666 88.667 72.999 152c-13.333 11.333 -26.666 23.333 -39.999 36c-16 14 -32.167 24.5 -48.5 31.5s-34.166 10.5 -53.499 10.5
c-14.667 0.666992 -28.667 -2.16602 -42 -8.49902s-30.333 -17.5 -51 -33.5h-1c-24.667 -19.333 -46.5 -33.333 -65.5 -42s-40.167 -12.667 -63.5 -12c-27.333 0 -52.833 3.16699 -76.5 9.5s-45.834 15.5 -66.501 27.5zM480 257c-112.667 12.667 -189.5 52.5 -230.5 119.5
s-60.167 133.5 -57.5 199.5v224c0 9.33301 3 17 9 23s13.667 9 23 9h576c9.33301 0 17 -3 23 -9s9 -13.667 9 -23v-224c2.66699 -66 -16.5 -132.5 -57.5 -199.5s-117.833 -106.833 -230.5 -119.5v-257h96c9.33301 0 17 -3 23 -9s9 -13.667 9 -23s-3 -17 -9 -23
s-13.667 -9 -23 -9h-256c-9.33301 0 -17 3 -23 9s-9 13.667 -9 23s3 17 9 23s13.667 9 23 9h96v257z" />
    <glyph glyph-name="goblet-square" unicode="&#xe6b3;" 
d="M544 257v-257h96c9.33301 0 17 -3 23 -9s9 -13.667 9 -23s-3 -17 -9 -23s-13.667 -9 -23 -9h-256c-9.33301 0 -17 3 -23 9s-9 13.667 -9 23s3 17 9 23s13.667 9 23 9h96v257c-112.667 12.667 -189.5 52.5 -230.5 119.5s-60.167 133.5 -57.5 199.5v224
c0 9.33301 3 17 9 23s13.667 9 23 9h576c9.33301 0 17 -3 23 -9s9 -13.667 9 -23v-224c2.66699 -66 -16.5 -132.5 -57.5 -199.5s-117.833 -106.833 -230.5 -119.5zM256 576c0 -76 20.833 -137.333 62.5 -184s106.167 -70.667 193.5 -72c88 1.33301 152.833 25.333 194.5 72
s62.167 108 61.5 184v192h-512v-192z" />
    <glyph glyph-name="goblet-full" unicode="&#xe6b4;" 
d="M256 576h512c0 78.667 -12.333 142.667 -37 192h-434c-27.333 -64 -41 -128 -41 -192zM760 512h-496c16 -57.333 46.5 -103.333 91.5 -138s97.167 -52.667 156.5 -54c59.333 1.33301 111.5 19.333 156.5 54s75.5 80.667 91.5 138zM544 258l-0.00195312 -257.999h96
c9.33301 0 17 -3 23 -9s9 -13.667 9 -23s-3 -17 -9 -23s-13.667 -9 -23 -9h-256c-9.33301 0 -17 3 -23 9s-9 13.667 -9 23s3 17 9 23s13.667 9 23 9h96v258c-83.333 10 -151.666 44.5 -204.999 103.5s-81 130.5 -83 214.5c0 85.333 21.333 170.666 64 255.999h512
c42.667 -64 64 -149.333 64 -256c-2 -84 -29.667 -155.5 -83 -214.5s-121.666 -93.5 -204.999 -103.5z" />
    <glyph glyph-name="goblet" unicode="&#xe6b5;" 
d="M544 258l-0.00195312 -257.999h96c9.33301 0 17 -3 23 -9s9 -13.667 9 -23s-3 -17 -9 -23s-13.667 -9 -23 -9h-256c-9.33301 0 -17 3 -23 9s-9 13.667 -9 23s3 17 9 23s13.667 9 23 9h96v258c-83.333 10 -151.666 44.5 -204.999 103.5s-81 130.5 -83 214.5
c0 85.333 21.333 170.666 64 255.999h512c42.667 -64 64 -149.333 64 -256c-2 -84 -29.667 -155.5 -83 -214.5s-121.666 -93.5 -204.999 -103.5zM255.998 576.001c2 -72.667 27 -133 75 -181s108.333 -73 181 -75c72.667 2 133 27 181 75s73 108.333 75 181
c0 78.667 -12.333 142.667 -37 192h-434c-27.333 -64 -41 -128 -41 -192z" />
    <glyph glyph-name="cold-drink" unicode="&#xe6b6;" 
d="M768 832c39.333 -0.666992 74.6689 -11.333 106.002 -32s54.666 -49.167 69.999 -85.5s19.5 -73 12.5 -110s-24.167 -69.667 -51.5 -98s-59.5 -46.5 -96.5 -54.5s-73.833 -5 -110.5 9l-218 -290v-171h96c9.33301 0 17 -3 23 -9s9 -13.667 9 -23s-3 -17 -9 -23
s-13.667 -9 -23 -9h-256c-9.33301 0 -17 3 -23 9s-9 13.667 -9 23s3 17 9 23s13.667 9 23 9h96v171l-339 451c-8.66699 12 -13 25 -13 39v11c0 8.66699 3 16 9 22s13.667 9.33301 23 10h72l-66 83c-5.33301 7.33301 -7.5 15.333 -6.5 24s5.16699 15.667 12.5 21
s15.166 7.5 23.499 6.5s15.5 -4.83301 21.5 -11.5l96 -123h338c14 38.667 37.333 69.5 70 92.5s69.667 34.833 111 35.5zM657.003 704.001l143 0.000976562c9.33301 -0.666992 17 -4 23 -10s9 -13.333 9 -22v-11c0 -14 -4.33301 -26.667 -13 -38l-80 -108
c32.667 -6.66699 63 -2.33398 91 12.999s47.333 39 58 71s9.66699 62.667 -3 92s-34.334 50.833 -65.001 64.5s-61.167 15.667 -91.5 6s-54.166 -29.167 -71.499 -58.5v1zM299.003 640.002l129 -166.004c5.33301 -7.33301 7.5 -15.166 6.5 -23.499s-5 -15.166 -12 -20.499
s-14.667 -7.66602 -23 -6.99902s-15.5 4.33398 -21.5 11.001l-160 206h-74l304 -405l304 405h-453z" />
    <glyph glyph-name="coffee-cup" unicode="&#xe6b8;" 
d="M768 704c35.333 0 67.8311 -8.66699 97.498 -26s53.167 -41.5 70.5 -72.5s25.5 -63.5 24.5 -97.5s-10.667 -66.167 -29 -96.5s-42.666 -53.5 -72.999 -69.5s-63.166 -23.333 -98.499 -22c-16 -57.333 -46.5 -103.5 -91.5 -138.5s-97.167 -52.833 -156.5 -53.5h-192
c-72.667 2 -133 27 -181 75s-73 108.333 -75 181v352c0 9.33301 3 17 9 23s13.667 9 23 9h640c9.33301 0 17 -3 23 -9s9 -13.667 9 -23v-32zM767.998 640v-256c36 0.666992 66.167 13.167 90.5 37.5s36.833 54.5 37.5 90.5c-0.666992 36 -13.167 66.167 -37.5 90.5
s-54.5 36.833 -90.5 37.5zM95.998 64h640c9.33301 0 17 -3 23 -9s9 -13.667 9 -23s-3 -17 -9 -23s-13.667 -9 -23 -9h-640c-9.33301 0 -17 3 -23 9s-9 13.667 -9 23s3 17 9 23s13.667 9 23 9zM127.998 704v-320c1.33301 -54.667 20 -100 56 -136s81.333 -54.667 136 -56h192
c54.667 1.33301 100 20 136 56s54.667 81.333 56 136v320h-576z" />
    <glyph glyph-name="water-cup" unicode="&#xe6b9;" 
d="M736 96v640h-576v-640c0.666992 -18 7 -33 19 -45s27 -18.333 45 -19h448c18 0.666992 33 7 45 19s18.333 27 19 45zM800 640h64c26.667 -0.666992 49.167 -10 67.5 -28s27.833 -40.667 28.5 -68v-224c-0.666992 -27.333 -10.167 -50 -28.5 -68
s-40.833 -27.333 -67.5 -28h-64v-128c-0.666992 -36 -13.167 -66.167 -37.5 -90.5s-54.5 -36.833 -90.5 -37.5h-448c-36 0.666992 -66.167 13.167 -90.5 37.5s-36.833 54.5 -37.5 90.5v672c0 9.33301 3 17 9 23s13.667 9 23 9h640c9.33301 0 17 -3 23 -9s9 -13.667 9 -23
v-128zM800 576v-288h64c8.66699 0 16 3 22 9s9.33301 13.667 10 23v224c-0.666992 9.33301 -4 17 -10 23s-13.333 9 -22 9h-64z" />
    <glyph glyph-name="hot-water" unicode="&#xe6ba;" 
d="M273 418h478v68h-478v-68zM273 350l-0.00390625 -51c0 -25.333 4.83301 -49.333 14.5 -72s23.334 -43 41.001 -61s37.834 -31.667 60.501 -41s46.667 -14 72 -14h102c25.333 0 49.333 4.66699 72 14s42.834 23 60.501 41s31.334 38.333 41.001 61s14.5 46.667 14.5 72v51
h-478zM238.996 555l546 -0.000976562c9.33301 -0.666992 17.333 -4.16699 24 -10.5s10 -14.166 10 -23.499v-222c-2 -72.667 -27 -133.167 -75 -181.5s-108.333 -73.166 -181 -74.499h-102c-34.667 0 -67.5 6.33301 -98.5 19s-58.5 31.167 -82.5 55.5s-42.5 52 -55.5 83
s-19.5 63.833 -19.5 98.5v222c0 9.33301 3.33301 17.166 10 23.499s14.667 9.83301 24 10.5zM511.996 861.999c9.33301 0 17.333 -3.33301 24 -10s10 -14.667 10 -24v-171c0 -9.33301 -3.16699 -17.333 -9.5 -24s-14.5 -10 -24.5 -10s-18.167 3.33301 -24.5 10
s-9.5 14.667 -9.5 24v171c0 9.33301 3.33301 17.333 10 24s14.667 10 24 10zM374.996 793.999c10 -0.666992 18.168 -4.16699 24.501 -10.5s9.83301 -14.5 10.5 -24.5v-102c-0.666992 -9.33301 -4.16699 -17.333 -10.5 -24s-14.333 -10 -24 -10s-17.667 3.33301 -24 10
s-9.83301 14.667 -10.5 24v102c0.666992 10 4.16699 18.167 10.5 24.5s14.166 9.83301 23.499 10.5zM648.997 793.999c9.33301 -0.666992 17.167 -4.16699 23.5 -10.5s9.83301 -14.5 10.5 -24.5v-102c-0.666992 -9.33301 -4.16699 -17.333 -10.5 -24s-14.333 -10 -24 -10
s-17.667 3.33301 -24 10s-9.83301 14.667 -10.5 24v102c0.666992 10 4.16699 18.167 10.5 24.5s14.5 9.83301 24.5 10.5zM170.998 -26.001h682c10 0 18.167 -3.16699 24.5 -9.5s9.5 -14.333 9.5 -24s-3.16699 -17.834 -9.5 -24.501s-14.5 -10 -24.5 -10h-682
c-10 0 -18.167 3.33301 -24.5 10s-9.5 14.834 -9.5 24.501s3.16699 17.667 9.5 24s14.5 9.5 24.5 9.5z" />
    <glyph glyph-name="ice-cream" unicode="&#xe6bb;" 
d="M129 448c4.66699 52.667 24.8291 96.6641 60.4961 131.997s79.834 55.333 132.501 60c9.33301 57.333 35.333 103.833 78 139.5s93.334 53.167 152.001 52.5c58.667 -3.33301 107.834 -24.166 147.501 -62.499s62.167 -86.833 67.5 -145.5
c36.667 -15.333 66.334 -38.666 89.001 -69.999s35.667 -66.666 39 -105.999h1l-347 -536c-6.66699 -9.33301 -15.667 -14 -27 -14s-20 4.66699 -26 14l-368 536h1zM192.995 447.997h286.002c-4.66699 37.333 -20.334 67.833 -47.001 91.5s-58.667 35.834 -96 36.501
c-37.333 -0.666992 -69.333 -12.834 -96 -36.501s-42.334 -54.167 -47.001 -91.5zM543.997 447.997h286.997c-5.33301 37.333 -21.166 67.833 -47.499 91.5s-58.5 35.834 -96.5 36.501c-37.333 -0.666992 -69.166 -12.834 -95.499 -36.501s-42.166 -54.167 -47.499 -91.5z
M248.994 383.997l272 -397l257 397h-529zM511.994 542.997c20.667 32.667 47.6641 57.5039 80.9971 74.5039s69.333 24.5 108 22.5c-8.66699 38 -27.667 68.833 -57 92.5s-63.666 35.167 -102.999 34.5s-73.166 -13.334 -101.499 -38.001s-46.166 -56.334 -53.499 -95.001
c26.667 -6.66699 50.667 -17.834 72 -33.501s39.333 -34.834 54 -57.501z" />
    <glyph glyph-name="dessert" unicode="&#xe6bc;" 
d="M128 480l0.00390625 32v16c0 21.333 4.5 41.5 13.5 60.5s21.667 35.5 38 49.5s34.666 23.667 54.999 29s41.166 6.33301 62.499 3c14.667 48.667 41.5 87.667 80.5 117s83.833 44.333 134.5 45c50.667 -0.666992 95.5 -15.667 134.5 -45s65.833 -68.333 80.5 -117
c21.333 3.33301 42.166 2.33301 62.499 -3s38.666 -15 54.999 -29s29 -30.5 38 -49.5s13.5 -39.167 13.5 -60.5v-48c-2 -102 -35.667 -188.667 -101 -260s-149 -112.333 -251 -123v-97h-64v97c-102 10.667 -185.667 51.667 -251 123s-99 158 -101 260zM415.004 512h194.002
c-2.66699 26 1.16602 50.667 11.499 74s26.166 43 47.499 59c-9.33301 36.667 -28.166 66.167 -56.499 88.5s-61.5 33.5 -99.5 33.5s-71.167 -11.167 -99.5 -33.5s-47.166 -51.833 -56.499 -88.5c21.333 -16 37.166 -35.667 47.499 -59s14.166 -48 11.499 -74zM342.006 512
c3.33301 14.667 2.33105 28.667 -3.00195 42s-14.166 24.333 -26.499 33s-25.833 13 -40.5 13s-28.167 -4.33301 -40.5 -13s-21.166 -19.667 -26.499 -33s-6.33301 -27.333 -3 -42h140zM682.004 512h139.998c3.33301 14.667 2.33301 28.667 -3 42s-14.166 24.333 -26.499 33
s-25.833 13 -40.5 13s-28.167 -4.33301 -40.5 -13s-21.166 -19.667 -26.499 -33s-6.33301 -27.333 -3 -42zM512.002 160c84 2 155.5 29.667 214.5 83s93.5 121.666 103.5 204.999h-636c10 -83.333 44.5 -151.666 103.5 -204.999s130.5 -81 214.5 -83zM384.002 0h256
c9.33301 0 17 -3 23 -9s9 -13.667 9 -23s-3 -17 -9 -23s-13.667 -9 -23 -9h-256c-9.33301 0 -17 3 -23 9s-9 13.667 -9 23s3 17 9 23s13.667 9 23 9z" />
    <glyph glyph-name="sugar" unicode="&#xe6bd;" 
d="M802 547l4 -4.99902c25.333 -26 38 -56 38 -90s-12.667 -64.333 -38 -91l-271 -271c-12.667 -12 -26.667 -21.333 -42 -28s-31.666 -10 -48.999 -10s-33.666 3.33301 -48.999 10s-29 16 -41 28l-5 4l-19 -109c-2.66699 -12 -7.83398 -22.5 -15.501 -31.5
s-17.167 -15.333 -28.5 -19s-22.833 -4 -34.5 -1s-21.834 8.5 -30.501 16.5l-143 143c-8 8.66699 -13.5 18.834 -16.5 30.501s-2.66699 23.167 1 34.5s10 20.833 19 28.5s19.5 12.834 31.5 15.501l109 19l-4 5c-12 12 -21.333 25.667 -28 41s-10 31.666 -10 48.999
s3.33301 33.666 10 48.999s16 29.333 28 42l271 271c12.667 12 26.667 21.333 42 28s31.666 10 48.999 10s33.666 -3.33301 48.999 -10s29 -16 41 -28l5 -4l19 109c2.66699 12 7.83398 22.333 15.501 31s17.334 14.834 29.001 18.501s23.167 4.16699 34.5 1.5
s21.333 -8.33398 30 -17.001l142 -143c8.66699 -8.66699 14.334 -18.667 17.001 -30s2.16699 -22.833 -1.5 -34.5s-9.83398 -21.334 -18.501 -29.001s-19 -12.5 -31 -14.5zM253 348.001h447v-2l61 61c12 12 18.333 26.667 19 44h-427l-90 -90
c-4 -4 -7.33301 -8.33301 -10 -13zM253 284.001c2.66699 -4.66699 6 -9 10 -13l136 -136c13.333 -12.667 28.5 -19 45.5 -19s31.833 6.33301 44.5 19l149 149h-385zM743 515.001l-118 118c-13.333 12.667 -28.5 19 -45.5 19s-31.833 -6.33301 -44.5 -19l-118 -118h326z
M124 139.001l143 -143l24 137c1.33301 8.66699 -1.16699 16.167 -7.5 22.5s-13.833 8.83301 -22.5 7.5zM757 772.001l-24 -137c-1.33301 -8.66699 1.16699 -16.167 7.5 -22.5s13.833 -8.83301 22.5 -7.5l137 24z" />
    <glyph glyph-name="tableware" unicode="&#xe6be;" 
d="M714 192c42.667 30 76.832 67.167 102.499 111.5s41.167 92.5 46.5 144.5h-702c5.33301 -52 20.833 -100.167 46.5 -144.5s59.834 -81.5 102.501 -111.5h404zM287.998 129c-60.667 39.333 -107.667 89.666 -141 150.999s-50.333 128 -51 200c0 9.33301 3 17 9 23
s13.667 9 23 9h768c9.33301 0 17 -3 23 -9s9 -13.667 9 -23c-0.666992 -72 -17.667 -138.667 -51 -200s-80.333 -111.666 -141 -150.999v-65c-0.666992 -18 -7 -33 -19 -45s-27 -18.333 -45 -19h-320c-18 0.666992 -33 7 -45 19s-18.333 27 -19 45v65zM492.998 576h-90
l254 254c8.66699 8.66699 19 11.5 31 8.5s19.5 -10.5 22.5 -22.5s0.166992 -22.333 -8.5 -31zM680.998 576h-127.999l269 156c8 4 16.167 4.83301 24.5 2.5s14.666 -7.33301 18.999 -15s5.5 -15.667 3.5 -24s-7 -14.833 -15 -19.5zM351.999 128v-64h320v64h-320z" />
    <glyph glyph-name="burger" unicode="&#xe6bf;" 
d="M160 384c-9.33301 0 -17.001 -3 -23.001 -9s-9 -13.667 -9 -23v-64c0 -8.66699 2.83301 -16 8.5 -22s12.834 -9.33301 21.501 -10h706c9.33301 0 17 3 23 9s9 13.667 9 23v64c0 9.33301 -3 17 -9 23s-13.667 9 -23 9h-704zM895.999 443
c19.333 -7.33301 34.832 -19.166 46.499 -35.499s17.5 -34.833 17.5 -55.5v-64c0 -18 -4.66699 -34.667 -14 -50s-22 -27 -38 -35l-53 -141c-7.33301 -18.667 -19 -33.5 -35 -44.5s-34 -16.833 -54 -17.5h-508c-20 0.666992 -38 6.5 -54 17.5s-27.667 25.833 -35 44.5
l-53 141c-16 8 -28.667 19.667 -38 35s-14 32 -14 50v64c0 20.667 5.83301 39.167 17.5 55.5s27.167 28.166 46.5 35.499v5c3.33301 108.667 41.5 198.834 114.5 270.501s163.833 108.5 272.5 110.5c108.667 -3.33301 198.834 -41.333 270.501 -114
s108.5 -163.334 110.5 -272.001zM831.998 448c-2 90.667 -33.167 166.167 -93.5 226.5s-135.833 91.5 -226.5 93.5c-90.667 -2 -166.167 -33.167 -226.5 -93.5s-91.5 -135.833 -93.5 -226.5h640zM511.998 192h-324l41 -107c2 -6.66699 5.66699 -11.834 11 -15.501
s11.333 -5.5 18 -5.5h508c6.66699 0 12.667 1.83301 18 5.5s9 8.83398 11 15.501l41 107h-324z" />
    <glyph glyph-name="knife-fork" unicode="&#xe6c1;" 
d="M256 485v315c0 9.33301 3 17 9 23s13.667 9 23 9s17 -3 23 -9s9 -13.667 9 -23v-315c19.333 7.33301 34.833 19.166 46.5 35.499s17.5 34.833 17.5 55.5v224c0 9.33301 3 17 9 23s13.667 9 23 9s17 -3 23 -9s9 -13.667 9 -23v-224
c-0.666992 -38.667 -12.667 -72.334 -36 -101.001s-54 -47.334 -92 -56.001v-451c0 -9.33301 -3 -17 -9 -23s-13.667 -9 -23 -9s-17 3 -23 9s-9 13.667 -9 23v451c-38 8.66699 -68.667 27.334 -92 56.001s-35.333 62.334 -36 101.001v224c0 9.33301 3 17 9 23s13.667 9 23 9
s17 -3 23 -9s9 -13.667 9 -23v-224c0 -20.667 5.83301 -39.167 17.5 -55.5s27.167 -28.166 46.5 -35.499zM640 736v-384.001h127c-3.33301 78.667 -13 148 -29 208c-14 54.667 -46.667 113.334 -98 176.001zM640 287.999l0.000976562 -320.001c0 -9.33301 -3 -17 -9 -23
s-13.667 -9 -23 -9s-17 3 -23 9s-9 13.667 -9 23v864h64c85.333 -89.333 138.666 -174.666 159.999 -255.999s32 -177.333 32 -288h-192z" />
    <glyph glyph-name="fork-spoon" unicode="&#xe6c2;" 
d="M256 486v314c0 9.33301 3 17 9 23s13.667 9 23 9s17 -3 23 -9s9 -13.667 9 -23v-314c19.333 6.66699 34.833 18.167 46.5 34.5s17.5 34.833 17.5 55.5v224c0 9.33301 3 17 9 23s13.667 9 23 9s17 -3 23 -9s9 -13.667 9 -23v-224
c-0.666992 -38.667 -12.667 -72.334 -36 -101.001s-54 -47.334 -92 -56.001v-451c0 -9.33301 -3 -17 -9 -23s-13.667 -9 -23 -9s-17 3 -23 9s-9 13.667 -9 23v451c-38 8.66699 -68.667 27.334 -92 56.001s-35.333 62.334 -36 101.001v224c0 9.33301 3 17 9 23s13.667 9 23 9
s17 -3 23 -9s9 -13.667 9 -23v-224c0 -20.667 5.83301 -39.167 17.5 -55.5s27.167 -27.833 46.5 -34.5zM672 324c-46.667 11.333 -84.8301 40 -114.497 86s-44.834 101.333 -45.501 166c1.33301 72.667 20 133 56 181s81.333 73 136 75c54.667 -2 100 -27 136 -75
s54.667 -108.333 56 -181c-0.666992 -64.667 -15.834 -120 -45.501 -166s-67.834 -74.667 -114.501 -86v-356c0 -9.33301 -3 -17 -9 -23s-13.667 -9 -23 -9s-17 3 -23 9s-9 13.667 -9 23v356zM704.004 384c34 1.33301 63.5 19.666 88.5 54.999s38.167 81 39.5 137
c-1.33301 56 -14.5 101.667 -39.5 137s-54.5 53.666 -88.5 54.999c-34 -1.33301 -63.5 -19.666 -88.5 -54.999s-38.167 -81 -39.5 -137c1.33301 -56 14.5 -101.667 39.5 -137s54.5 -53.666 88.5 -54.999z" />
    <glyph glyph-name="chicken" unicode="&#xe6c3;" 
d="M350 179l129 129c-10 4.66699 -18.833 11 -26.5 19s-14.167 16.667 -19.5 26l-128 -129l2 -9l2 -32l32 -2zM407 146c20 -20 32.1689 -43.335 36.502 -70.002s0.166016 -52.5 -12.501 -77.5s-30.834 -43.833 -54.501 -56.5s-49.334 -17 -77.001 -13
s-51.334 15.167 -71.001 33.5s-32.167 41.166 -37.5 68.499l-2 32l-32 2c-27.333 6 -50.166 18.667 -68.499 38s-29.5 42.833 -33.5 70.5s0.333008 53.334 13 77.001s31.5 41.834 56.5 54.501s50.667 16.834 77 12.501s49.5 -16.166 69.5 -35.499l146 145
c-0.666992 52 12.333 108.167 39 168.5s63.334 114.166 110.001 161.499c54.667 52 110.167 76 166.5 72s106.5 -28 150.5 -72s68 -94.167 72 -150.5s-20.333 -111.833 -73 -166.5c-46.667 -46 -100.167 -82.5 -160.5 -109.5s-116.833 -40.167 -169.5 -39.5z
M498.002 371.998c29.333 -23.333 78.833 -23.832 148.5 -1.49902s133.167 60.5 190.5 114.5c38 40 55.667 79.667 53 119s-20.167 75.166 -52.5 107.499s-68.333 50 -108 53s-79.167 -14.5 -118.5 -52.5c-54 -58 -92.333 -121.833 -115 -191.5s-22 -119.167 2 -148.5z
M245.002 186.999c0.666992 13.333 -2.33203 25.666 -8.99902 36.999s-16.167 19.833 -28.5 25.5s-25 7.33398 -38 5.00098s-24.167 -8.33301 -33.5 -18s-15.166 -21 -17.499 -34s-0.833008 -25.667 4.5 -38s13.666 -21.833 24.999 -28.5s23.666 -9.66699 36.999 -9l56 4z
M253.003 58.999c-0.666992 -13.333 2.33203 -25.5 8.99902 -36.5s16.167 -19.333 28.5 -25s25 -7.33398 38 -5.00098s24.167 8.33301 33.5 18s15.166 20.834 17.499 33.501s0.833008 25.167 -4.5 37.5s-13.666 21.833 -24.999 28.5s-23.666 9.66699 -36.999 9l-57 -3z" />
    <glyph glyph-name="food" unicode="&#xe6c4;" 
d="M128 543l-0.00292969 1.00195c0.666992 59.333 16.834 112.666 48.501 159.999s74.834 82.333 129.501 105s109.834 28.5 165.501 17.5s104.834 -37.167 147.501 -78.5c33.333 16 67.5 22.333 102.5 19s67.333 -15.833 97 -37.5s51 -49 64 -82s16.5 -67.5 10.5 -103.5
c18.667 -2 33.667 -10.333 45 -25s15.666 -31 12.999 -49c-29.333 -174.667 -101 -285 -215 -331v-43c-0.666992 -27.333 -10 -50 -28 -68s-40.667 -27.333 -68 -28h-256c-27.333 0.666992 -50 10 -68 28s-27.333 40.667 -28 68v43c-114 46 -185.667 156.333 -215 331
c-2.66699 17.333 1.33301 33.166 12 47.499s25 22.833 43 25.5zM191.997 544.002h63.9961c1.33301 45.333 17 83 47 113s67.667 45.667 113 47c45.333 -1.33301 83 -17 113 -47s45.667 -67.667 47 -113h64c-1.33301 63.333 -23.166 116.166 -65.499 158.499
s-95.166 64.166 -158.499 65.499c-63.333 -1.33301 -116.166 -23.166 -158.499 -65.499s-64.166 -95.166 -65.499 -158.499zM319.993 544.002h192c-0.666992 27.333 -10 50 -28 68s-40.667 27 -68 27s-50 -9 -68 -27s-27.333 -40.667 -28 -68zM758.993 544.002
l69 -0.000976562c4.66699 19.333 5 38.5 1 57.5s-12 36.5 -24 52.5s-26.833 28.333 -44.5 37s-36.5 13 -56.5 13c-15.333 0 -30 -2.66699 -44 -8c12 -18 21.333 -37.333 28 -58c12.667 3.33301 25 2.83301 37 -1.5s22 -11.666 30 -21.999s12.333 -21.833 13 -34.5
s-2.33301 -24.667 -9 -36zM671.993 128.001h-320v-32c0 -9.33301 3 -17 9 -23s13.667 -9 23 -9h256c9.33301 0 17 3 23 9s9 13.667 9 23v32zM328.993 192.001h366c50.667 16 92 47.667 124 95s54.667 111.666 68 192.999h-750c13.333 -81.333 36 -145.666 68 -192.999
s73.333 -79 124 -95z" />
    <glyph glyph-name="dish-1" unicode="&#xe6c5;" 
d="M384 621l0.000976562 51c1.33301 36 14 66.167 38 90.5s54 36.833 90 37.5c36 -0.666992 66 -13 90 -37s36.667 -54.333 38 -91v-50c108 -34.667 191 -97.5 249 -188.5s80 -192.833 66 -305.5h-886c-14.667 112.667 7.16602 214.5 65.499 305.5s141.5 153.5 249.5 187.5z
M96.001 64h832c9.33301 0 17 -3 23 -9s9 -13.667 9 -23s-3 -17 -9 -23s-13.667 -9 -23 -9h-832c-9.33301 0 -17 3 -23 9s-9 13.667 -9 23s3 17 9 23s13.667 9 23 9zM128.001 192h768c-2.66699 108.667 -40.167 199.167 -112.5 271.5s-162.833 109.833 -271.5 112.5
c-108.667 -2.66699 -199.167 -40.167 -271.5 -112.5s-109.833 -162.833 -112.5 -271.5zM576.001 640v32c-0.666992 18 -7 33 -19 45s-27 18 -45 18s-33 -6 -45 -18s-18.333 -27 -19 -45v-32h128z" />
    <glyph glyph-name="dish" unicode="&#xe6c6;" 
d="M480 639l0.00195312 65h-96c-9.33301 0 -17 3 -23 9s-9 13.667 -9 23s3 17 9 23s13.667 9 23 9h256c9.33301 0 17 -3 23 -9s9 -13.667 9 -23s-3 -17 -9 -23s-13.667 -9 -23 -9h-96v-65c62.667 -4.66699 121.334 -21.334 176.001 -50.001s101.667 -67.5 141 -116.5
s67.166 -103.167 83.499 -162.5s20.166 -120 11.499 -182h-888c-8.66699 62 -4.83398 122.667 11.499 182s44.166 113.5 83.499 162.5s86.333 87.833 141 116.5s113.334 45.334 176.001 50.001zM128.002 192h768c-2.66699 108.667 -40.167 199.167 -112.5 271.5
s-162.833 109.833 -271.5 112.5c-108.667 -2.66699 -199.167 -40.167 -271.5 -112.5s-109.833 -162.833 -112.5 -271.5zM96.002 64h832c9.33301 0 17 -3 23 -9s9 -13.667 9 -23s-3 -17 -9 -23s-13.667 -9 -23 -9h-832c-9.33301 0 -17 3 -23 9s-9 13.667 -9 23s3 17 9 23
s13.667 9 23 9z" />
    <glyph glyph-name="refresh-left" unicode="&#xe6c7;" 
d="M289 599h93.001c9.33301 0 17 -3 23 -9s9 -13.5 9 -22.5s-3 -16.5 -9 -22.5s-13.667 -9.33301 -23 -10h-149c-9.33301 0.666992 -17 4 -23 10s-9 13.333 -9 22v149c0 9.33301 3 17 9 23s13.667 9 23 9s17 -3 23 -9s9 -13.667 9 -23v-50
c57.333 51.333 122.833 83.166 196.5 95.499s146.167 3.5 217.5 -26.5c70.667 -32 126.5 -79.333 167.5 -142s61.833 -132.667 62.5 -210c-2.66699 -108.667 -40.167 -199.167 -112.5 -271.5s-162.833 -109.833 -271.5 -112.5
c-108.667 2.66699 -199.167 40.167 -271.5 112.5s-109.833 162.833 -112.5 271.5h64c2 -90.667 33.167 -166.167 93.5 -226.5s135.833 -91.5 226.5 -93.5c90.667 2 166 33.167 226 93.5s91.333 135.833 94 226.5c-0.666992 67.333 -19.334 127.5 -56.001 180.5
s-86 92.167 -148 117.5c-62.667 23.333 -125.5 27.833 -188.5 13.5s-117.5 -46.166 -163.5 -95.499z" />
    <glyph glyph-name="refresh-right" unicode="&#xe6c8;" 
d="M785 666v49.9961c0 9.33301 3 17 9 23s13.5 9 22.5 9s16.5 -3 22.5 -9s9.33301 -13.667 10 -23v-149c-0.666992 -8.66699 -4 -16 -10 -22s-13.333 -9.33301 -22 -10h-149c-9.33301 0.666992 -17 4 -23 10s-9 13.5 -9 22.5s3 16.5 9 22.5s13.667 9 23 9h93
c-52 54.667 -113.167 87.834 -183.5 99.501s-138.5 0.166992 -204.5 -34.5c-65.333 -36 -112.333 -86.667 -141 -152s-34.334 -134.666 -17.001 -207.999c19.333 -72 57.166 -129.833 113.499 -173.5s121.833 -66.167 196.5 -67.5c90.667 2 166 33.167 226 93.5
s91.333 135.833 94 226.5h64c-2.66699 -108.667 -40.167 -199.167 -112.5 -271.5s-162.833 -109.833 -271.5 -112.5c-108.667 2.66699 -199.167 40.167 -271.5 112.5s-109.833 162.833 -112.5 271.5c0.666992 77.333 21.334 147.333 62.001 210s96.334 109.667 167.001 141
c71.333 30.667 143.833 39.834 217.5 27.501s139.5 -44.166 197.5 -95.499z" />
    <glyph glyph-name="warning-outline" unicode="&#xe6c9;" 
d="M512 832c126.667 -3.33301 232.167 -47.166 316.5 -131.499s128.166 -189.833 131.499 -316.5c-3.33301 -126.667 -47.166 -232.167 -131.499 -316.5s-189.833 -128.166 -316.5 -131.499c-126.667 3.33301 -232.167 47.166 -316.5 131.499
s-128.166 189.833 -131.499 316.5c3.33301 126.667 47.166 232.167 131.499 316.5s189.833 128.166 316.5 131.499zM512 0c108.667 2.66699 199.167 40.167 271.5 112.5s109.833 162.833 112.5 271.5c-2.66699 108.667 -40.167 199.167 -112.5 271.5
s-162.833 109.833 -271.5 112.5c-108.667 -2.66699 -199.167 -40.167 -271.5 -112.5s-109.833 -162.833 -112.5 -271.5c2.66699 -108.667 40.167 -199.167 112.5 -271.5s162.833 -109.833 271.5 -112.5zM560 176c-0.666992 -13.333 -5.5 -24.5 -14.5 -33.5
s-20.167 -13.5 -33.5 -13.5s-24.5 4.5 -33.5 13.5s-13.5 20.167 -13.5 33.5s4.5 24.5 13.5 33.5s20.167 13.5 33.5 13.5s24.5 -4.5 33.5 -13.5s13.833 -20.167 14.5 -33.5zM512 640c9.33301 0 17 -3 23 -9s9 -13.667 9 -23v-288c0 -9.33301 -3 -17 -9 -23s-13.667 -9 -23 -9
s-17 3 -23 9s-9 13.667 -9 23v288c0 9.33301 3 17 9 23s13.667 9 23 9z" />
    <glyph glyph-name="setting" unicode="&#xe6ca;" 
d="M625 832l222 -128l-43 -75c14.667 -17.333 28 -36.333 40 -57s22 -42 30 -64h86v-256h-86c-16 -44.667 -39.333 -85 -70 -121l43 -75l-222 -128l-43 75c-46.667 -8.66699 -93.334 -8.66699 -140.001 0l-43 -75l-222 128l43 75c-15.333 18 -28.833 37.167 -40.5 57.5
s-21.5 41.5 -29.5 63.5h-86v256h86c16 44.667 39.333 85 70 121l-43 75l222 128l43 -75c46.667 8.66699 93.334 8.66699 140.001 0zM649 745l-11.999 -20.001l-22 -39l-45 8c-38.667 7.33301 -77.334 7.33301 -116.001 0l-45 -8l-34 59l-110 -64l33 -59l-29 -34
c-25.333 -30 -44.666 -63.667 -57.999 -101l-15 -43h-68v-128h67l16 -43c6.66699 -19.333 14.667 -37 24 -53s20.666 -32 33.999 -48l29 -34l-33 -59l110 -64l34 59l45 -8c38.667 -7.33301 77.334 -7.33301 116.001 0l45 8l34 -59l110 64l-33 59l29 34
c25.333 30.667 44.666 64.334 57.999 101.001l15 43h68v128h-67l-16 43c-6 18 -14 35.5 -24 52.5s-21.333 33.167 -34 48.5l-29 34l33 59zM512.001 603.999c63.333 -1.33301 116.166 -23.166 158.499 -65.499s64.166 -95.166 65.499 -158.499
c-1.33301 -63.333 -23.166 -116.166 -65.499 -158.499s-95.166 -64.166 -158.499 -65.499c-63.333 1.33301 -116.166 23.166 -158.499 65.499s-64.166 95.166 -65.499 158.499c1.33301 63.333 23.166 116.166 65.499 158.499s95.166 64.166 158.499 65.499zM512.001 539.999
c-45.333 -1.33301 -83 -17 -113 -47s-45.667 -67.667 -47 -113c1.33301 -45.333 17 -83 47 -113s67.667 -45.667 113 -47c45.333 1.33301 83 17 113 47s45.667 67.667 47 113c-1.33301 45.333 -17 83 -47 113s-67.667 45.667 -113 47z" />
    <glyph glyph-name="phone-outline" unicode="&#xe6cb;" 
d="M79 464l513 -513c4.66699 -4.66699 10.167 -7.5 16.5 -8.5s12.5 -0.166992 18.5 2.5l253 108c10.667 4.66699 17 12.5 19 23.5s-1 20.5 -9 28.5l-153 154c-5.33301 4.66699 -11.333 7.66699 -18 9s-13 0.333008 -19 -3l-70 -35l-272 272l35 70
c3.33301 6 4.33301 12.333 3 19s-4.33301 12.667 -9 18l-154 153c-8 8 -17.5 11 -28.5 9s-18.833 -8.33301 -23.5 -19l-108 -253c-2.66699 -6 -3.5 -12.167 -2.5 -18.5s3.83301 -11.833 8.5 -16.5zM140 494l81 190l105 -104l-46 -91l337 -337l91 46l104 -105l-190 -81z
M512 576v64c72.667 -2 133 -27 181 -75s73 -108.333 75 -181h-64c-1.33301 54.667 -20 100 -56 136s-81.333 54.667 -136 56zM512 768l0.000976562 63.999c126.667 -3.33301 232.167 -47.166 316.5 -131.499s128.166 -189.833 131.499 -316.5h-64
c-2.66699 108.667 -40.167 199.167 -112.5 271.5s-162.833 109.833 -271.5 112.5z" />
    <glyph glyph-name="more-outline" unicode="&#xe6cc;" 
d="M176 480c-32 -0.666992 -58.5 -11.5 -79.5 -32.5s-31.833 -47.5 -32.5 -79.5c0.666992 -32 11.5 -58.5 32.5 -79.5s47.5 -31.833 79.5 -32.5c32 0.666992 58.5 11.5 79.5 32.5s31.833 47.5 32.5 79.5c-0.666992 32 -11.5 58.5 -32.5 79.5s-47.5 31.833 -79.5 32.5z
M176 416c13.333 -0.666992 24.5 -5.5 33.5 -14.5s13.5 -20.167 13.5 -33.5s-4.5 -24.5 -13.5 -33.5s-20.167 -13.5 -33.5 -13.5s-24.5 4.5 -33.5 13.5s-13.5 20.167 -13.5 33.5s4.5 24.5 13.5 33.5s20.167 13.833 33.5 14.5zM512 480c32 -0.666992 58.5 -11.5 79.5 -32.5
s31.833 -47.5 32.5 -79.5c-0.666992 -32 -11.5 -58.5 -32.5 -79.5s-47.5 -31.833 -79.5 -32.5c-32 0.666992 -58.5 11.5 -79.5 32.5s-31.833 47.5 -32.5 79.5c0.666992 32 11.5 58.5 32.5 79.5s47.5 31.833 79.5 32.5zM512 416c-13.333 -0.666992 -24.5 -5.5 -33.5 -14.5
s-13.5 -20.167 -13.5 -33.5s4.5 -24.5 13.5 -33.5s20.167 -13.5 33.5 -13.5s24.5 4.5 33.5 13.5s13.5 20.167 13.5 33.5s-4.5 24.5 -13.5 33.5s-20.167 13.833 -33.5 14.5zM848 480c32 -0.666992 58.5 -11.5 79.5 -32.5s31.833 -47.5 32.5 -79.5
c-0.666992 -32 -11.5 -58.5 -32.5 -79.5s-47.5 -31.833 -79.5 -32.5c-32 0.666992 -58.5 11.5 -79.5 32.5s-31.833 47.5 -32.5 79.5c0.666992 32 11.5 58.5 32.5 79.5s47.5 31.833 79.5 32.5zM848 416c-13.333 -0.666992 -24.5 -5.5 -33.5 -14.5s-13.5 -20.167 -13.5 -33.5
s4.5 -24.5 13.5 -33.5s20.167 -13.5 33.5 -13.5s24.5 4.5 33.5 13.5s13.5 20.167 13.5 33.5s-4.5 24.5 -13.5 33.5s-20.167 13.833 -33.5 14.5z" />
    <glyph glyph-name="finished" unicode="&#xe6cd;" 
d="M281 142l410.001 587.001c7.33301 10 17.166 14.5 29.499 13.5s21 -7 26 -18s4.16699 -21.833 -2.5 -32.5l-430 -613c-5.33301 -7.33301 -12.333 -11.833 -21 -13.5s-16.667 0.166016 -24 5.49902l-231 173c-6.66699 5.33301 -10.667 12.333 -12 21s0.666992 16.667 6 24
s12.333 11.5 21 12.5s16.667 -1.16699 24 -6.5zM736.001 448.001c-9.33301 0 -17 3 -23 9s-9 13.667 -9 23s3 17 9 23s13.667 9 23 9h192c9.33301 0 17 -3 23 -9s9 -13.667 9 -23s-3 -17 -9 -23s-13.667 -9 -23 -9h-192zM608.001 256.001c-9.33301 0 -17 3 -23 9
s-9 13.667 -9 23s3 17 9 23s13.667 9 23 9h320c9.33301 0 17 -3 23 -9s9 -13.667 9 -23s-3 -17 -9 -23s-13.667 -9 -23 -9h-320zM480.001 64.001c-9.33301 0 -17 3 -23 9s-9 13.667 -9 23s3 17 9 23s13.667 9 23 9h448c9.33301 0 17 -3 23 -9s9 -13.667 9 -23s-3 -17 -9 -23
s-13.667 -9 -23 -9h-448z" />
    <glyph glyph-name="view" unicode="&#xe6ce;" 
d="M512 736c161.333 -14.667 286.666 -73.334 375.999 -176.001s134.666 -161.334 135.999 -176.001c-1.33301 -14.667 -46.666 -73.334 -135.999 -176.001s-214.666 -161.334 -375.999 -176.001c-161.333 14.667 -286.666 73.334 -375.999 176.001
s-134.666 161.334 -135.999 176.001c1.33301 14.667 46.666 73.334 135.999 176.001s214.666 161.334 375.999 176.001zM512 672c-113.333 -7.33301 -207.666 -45.5 -282.999 -114.5s-126.666 -126.833 -153.999 -173.5c27.333 -46.667 78.666 -104.5 153.999 -173.5
s169.666 -107.167 282.999 -114.5c113.333 7.33301 207.666 45.5 282.999 114.5s126.666 126.833 153.999 173.5c-27.333 46.667 -78.666 104.5 -153.999 173.5s-169.666 107.167 -282.999 114.5zM512 608c63.333 -1.33301 116.166 -23.166 158.499 -65.499
s64.166 -95.166 65.499 -158.499c-1.33301 -63.333 -23.166 -116.166 -65.499 -158.499s-95.166 -64.166 -158.499 -65.499c-63.333 1.33301 -116.166 23.166 -158.499 65.499s-64.166 95.166 -65.499 158.499c1.33301 63.333 23.166 116.166 65.499 158.499
s95.166 64.166 158.499 65.499zM512 544c-45.333 -1.33301 -83 -17 -113 -47s-45.667 -67.667 -47 -113c1.33301 -45.333 17 -83 47 -113s67.667 -45.667 113 -47c45.333 1.33301 83 17 113 47s45.667 67.667 47 113c-1.33301 45.333 -17 83 -47 113s-67.667 45.667 -113 47
z" />
    <glyph glyph-name="loading" unicode="&#xe6cf;" 
d="M512 832c9.33301 0 17 -3 23 -9s9 -13.667 9 -23v-192c0 -9.33301 -3 -17 -9 -23s-13.667 -9 -23 -9s-17 3 -23 9s-9 13.667 -9 23v192c0 9.33301 3 17 9 23s13.667 9 23 9zM512 192c9.33301 0 17 -3 23 -9s9 -13.667 9 -23v-192c0 -9.33301 -3 -17 -9 -23
s-13.667 -9 -23 -9s-17 3 -23 9s-9 13.667 -9 23v192c0 9.33301 3 17 9 23s13.667 9 23 9zM960 384c0 -9.33301 -3 -17 -9 -23s-13.667 -9 -23 -9h-192c-9.33301 0 -17 3 -23 9s-9 13.667 -9 23s3 17 9 23s13.667 9 23 9h192c9.33301 0 17 -3 23 -9s9 -13.667 9 -23z
M320 384c0 -9.33301 -3 -17 -9 -23s-13.667 -9 -23 -9h-192c-9.33301 0 -17 3 -23 9s-9 13.667 -9 23s3 17 9 23s13.667 9 23 9h192c9.33301 0 17 -3 23 -9s9 -13.667 9 -23zM195 701c6.66699 6 14.332 8.99805 22.999 8.99805s16 -3 22 -9l136 -136
c6 -6.66699 9 -14.167 9 -22.5s-3.16699 -15.666 -9.5 -21.999s-13.666 -9.5 -21.999 -9.5s-15.833 3 -22.5 9l-136 136c-6 6 -9 13.333 -9 22s3 16.334 9 23.001zM647.998 247.998c6.66699 6.66699 14.167 10 22.5 10s15.833 -3.33301 22.5 -10l136 -136
c6 -6 9 -13.333 9 -22s-3.16699 -16.167 -9.5 -22.5s-13.833 -9.5 -22.5 -9.5s-16 3 -22 9l-136 136c-6.66699 6.66699 -10 14.167 -10 22.5s3.33301 15.833 10 22.5zM828.998 700.998c6 -6.66699 8.99805 -14.332 8.99805 -22.999s-3 -16 -9 -22l-136 -136
c-6.66699 -6 -14.167 -9 -22.5 -9s-15.666 3.16699 -21.999 9.5s-9.5 13.666 -9.5 21.999s3 15.833 9 22.5l136 136c6 6 13.333 9 22 9s16.334 -3 23.001 -9zM375.996 248c6.66699 -6.66699 10 -14.167 10 -22.5s-3.33301 -15.833 -10 -22.5l-136 -136
c-6 -6 -13.333 -9 -22 -9s-16.167 3.16699 -22.5 9.5s-9.5 13.833 -9.5 22.5s3 16 9 22l136 136c6.66699 6.66699 14.167 10 22.5 10s15.833 -3.33301 22.5 -10z" />
    <glyph glyph-name="refresh" unicode="&#xe6d0;" 
d="M772 101c-58 -52 -123.832 -84.001 -197.499 -96.001s-145.834 -3 -216.501 27c-70.667 32 -126.5 79.333 -167.5 142s-61.833 132.667 -62.5 210h64c0.666992 -67.333 19.167 -127.666 55.5 -180.999s85.833 -92.333 148.5 -117c62.667 -24 125.5 -28.667 188.5 -14
s117.5 46.667 163.5 96h-93c-9.33301 0 -17 3 -23 9s-9 13.5 -9 22.5s3 16.5 9 22.5s13.667 9.33301 23 10h149c8.66699 -0.666992 16 -4 22 -10s9.33301 -13.333 10 -22v-149c-0.666992 -9.33301 -4 -17 -10 -23s-13.5 -9 -22.5 -9s-16.5 3 -22.5 9s-9 13.667 -9 23v50z
M276.001 599.999l92.998 0.000976562c9.33301 0 17 -3 23 -9s9 -13.5 9 -22.5s-3 -16.5 -9 -22.5s-13.667 -9.33301 -23 -10h-149c-8.66699 0.666992 -16 4 -22 10s-9.33301 13.333 -10 22v149c0.666992 9.33301 4 17 10 23s13.5 9 22.5 9s16.5 -3 22.5 -9s9 -13.667 9 -23
v-50c58 52 123.833 84 197.5 96s146.167 3 217.5 -27c70.667 -32 126.334 -79.333 167.001 -142s61.334 -132.667 62.001 -210h-64c-0.666992 67.333 -19.167 127.666 -55.5 180.999s-85.833 92.333 -148.5 117c-62.667 24 -125.5 28.667 -188.5 14
s-117.5 -46.667 -163.5 -96z" />
    <glyph glyph-name="rank" unicode="&#xe6d1;" 
d="M186 352l41.998 -41.0029c8 -9.33301 10.5 -19.833 7.5 -31.5s-10.333 -19 -22 -22s-21.834 -0.5 -30.501 7.5l-96 96c-6.66699 6.66699 -10 14.334 -10 23.001s3.33301 16.334 10 23.001l96 96c8.66699 8 18.834 10.5 30.501 7.5s19 -10.333 22 -22
s0.5 -22.167 -7.5 -31.5l-42 -41h291v294l-41 -42c-8.66699 -8.66699 -19.167 -11.5 -31.5 -8.5s-20 10.5 -23 22.5s0.166992 22.333 9.5 31l96 96c6 6.66699 13.333 10 22 10s16.334 -3.33301 23.001 -10l96 -96c6 -6.66699 8.83301 -14 8.5 -22
s-3.66602 -15.167 -9.99902 -21.5s-13.5 -9.66602 -21.5 -9.99902s-15.333 2.5 -22 8.5l-42 41v-293h291l-41 41c-6.66699 6.66699 -10 14.334 -10 23.001s3.16699 16.167 9.5 22.5s13.833 9.5 22.5 9.5s16.334 -3 23.001 -9l96 -96c6 -6.66699 9 -14.334 9 -23.001
s-3 -16.334 -9 -23.001l-96 -96c-6.66699 -6 -14.334 -9 -23.001 -9s-16.167 3.16699 -22.5 9.5s-9.5 13.833 -9.5 22.5s3.33301 16.334 10 23.001l41 41h-291v-293l42 41c8.66699 8.66699 18.834 11.334 30.501 8.00098s19.167 -10.833 22.5 -22.5
s0.666016 -21.834 -8.00098 -30.501l-96 -96c-6.66699 -6.66699 -14.334 -10 -23.001 -10s-16 3.33301 -22 10l-96 96c-6.66699 6 -10 13.333 -10 22s3.16699 16.167 9.5 22.5s13.833 9.5 22.5 9.5s16.334 -3 23.001 -9l41 -42v294h-291z" />
    <glyph glyph-name="sort" unicode="&#xe6d2;" 
d="M384 800c0 9.33301 3 17.001 9 23.001s13.667 9 23 9s17 -3 23 -9s9 -13.667 9 -23v-787c0 -6.66699 -1.83301 -12.5 -5.5 -17.5s-8.5 -8.83301 -14.5 -11.5s-12.167 -3.33398 -18.5 -2.00098s-11.833 4.33301 -16.5 9l-297 297c-6 6 -9 13.5 -9 22.5s3 16.5 9 22.5v0
c6.66699 6.66699 14.167 10 22.5 10s15.833 -3.33301 22.5 -10l243 -243v710zM576 755.001c0 6.66699 1.83301 12.499 5.5 17.499s8.5 8.83301 14.5 11.5s12.167 3.33398 18.5 2.00098s11.833 -4.33301 16.5 -9l297 -297c6 -6 9 -13.5 9 -22.5s-3 -16.5 -9 -22.5v0
c-6.66699 -6.66699 -14.167 -10 -22.5 -10s-15.833 3.33301 -22.5 10l-243 243v-710c0 -9.33301 -3 -17 -9 -23s-13.667 -9 -23 -9s-17 3 -23 9s-9 13.667 -9 23v787z" />
    <glyph glyph-name="mobile-phone" unicode="&#xe6d3;" 
d="M224 128v-96c0.666992 -18 7 -33 19 -45s27 -18.333 45 -19h448c18 0.666992 33 7 45 19s18.333 27 19 45v96h-576zM224 192h576v544c-0.666992 18 -7 33 -19 45s-27 18.333 -45 19h-448c-18 -0.666992 -33 -7 -45 -19s-18.333 -27 -19 -45v-544zM256 -96
c-27.333 0.666992 -50 10 -68 28s-27.333 40.667 -28 68v768c0.666992 27.333 10 50 28 68s40.667 27.333 68 28h512c27.333 -0.666992 50 -10 68 -28s27.333 -40.667 28 -68v-768c-0.666992 -27.333 -10 -50 -28 -68s-40.667 -27.333 -68 -28h-512zM560 48
c-0.666992 -13.333 -5.5 -24.5 -14.5 -33.5s-20.167 -13.5 -33.5 -13.5s-24.5 4.5 -33.5 13.5s-13.5 20.167 -13.5 33.5s4.5 24.5 13.5 33.5s20.167 13.5 33.5 13.5s24.5 -4.5 33.5 -13.5s13.833 -20.167 14.5 -33.5z" />
    <glyph glyph-name="service" unicode="&#xe6d4;" 
d="M864 486c33.333 -19.333 58.502 -45.6699 75.502 -79.0029s23.333 -69.166 19 -107.499s-18.333 -72 -42 -101s-53.834 -49.5 -90.501 -61.5c-14 -60 -43.833 -108.167 -89.5 -144.5s-99.167 -55.166 -160.5 -56.499h-96c-9.33301 0 -17 3 -23 9s-9 13.667 -9 23
s3 17 9 23s13.667 9 23 9h96c41.333 0.666992 78.333 12.5 111 35.5s56 53.833 70 92.5h-21c-9.33301 0 -17 3 -23 9s-9 13.667 -9 23v320c0 9.33301 3 17 9 23s13.667 9 23 9h32c10.667 0 21 -0.666992 31 -2c-9.33301 74.667 -40.5 136 -93.5 184s-117.5 72.667 -193.5 74
c-76 -1.33301 -140.5 -26 -193.5 -74s-84.167 -109.333 -93.5 -184c10 1.33301 20.333 2 31 2h32c9.33301 0 17 -3 23 -9s9 -13.667 9 -23v-320c0 -9.33301 -3 -17 -9 -23s-13.667 -9 -23 -9h-32c-44.667 0.666992 -83.667 13.834 -117 39.501s-55.833 60 -67.5 103
s-9.33398 84 6.99902 123s43.5 69.833 81.5 92.5c2.66699 100 37 183.167 103 249.5s149 100.5 249 102.5c100 -2 183 -36.167 249 -102.5s100.333 -149.5 103 -249.5zM256.002 447.996c-36 -0.666992 -66.167 -13.167 -90.5 -37.5s-36.833 -54.5 -37.5 -90.5
c0.666992 -36 13.167 -66.167 37.5 -90.5s54.5 -36.833 90.5 -37.5v256zM896.002 319.996c-0.666992 36 -13.167 66.167 -37.5 90.5s-54.5 36.833 -90.5 37.5v-256c36 0.666992 66.167 13.167 90.5 37.5s36.833 54.5 37.5 90.5z" />
    <glyph glyph-name="sell" unicode="&#xe6d5;" 
d="M704 608h130.997c8.66699 0 15.834 -2.66699 21.501 -8s9.16699 -12.333 10.5 -21l19 -195h-64l-16 160h-102v-96c0 -9.33301 -3 -17 -9 -23s-13.667 -9 -23 -9s-17 3 -23 9s-9 13.667 -9 23v96h-256v-96c0 -9.33301 -3 -17 -9 -23s-13.667 -9 -23 -9s-17 3 -23 9
s-9 13.667 -9 23v96h-102l-51 -512h345v-64h-381c-9.33301 0 -17.166 3.5 -23.499 10.5s-8.83301 15.167 -7.5 24.5l57 576c1.33301 8.66699 4.83301 15.667 10.5 21s12.834 8 21.501 8h131v22c1.33301 57.333 20 105 56 143s81.333 57.667 136 59
c54.667 -1.33301 100 -21 136 -59s54.667 -85.667 56 -143v-22zM639.997 608v22c-0.666992 39.333 -13.167 72 -37.5 98s-54.5 39.333 -90.5 40c-36 -0.666992 -66.167 -14 -90.5 -40s-36.833 -58.667 -37.5 -98v-22h256zM840.997 124l-73.002 74v-230
c0 -9.33301 -3 -17 -9 -23s-13.667 -9 -23 -9s-17 3 -23 9s-9 13.667 -9 23v230l-73 -74c-9.33301 -8.66699 -19.833 -11.334 -31.5 -8.00098s-19 10.833 -22 22.5s-0.5 21.834 7.5 30.501l128 128c6.66699 6.66699 14.334 10 23.001 10s16.334 -3.33301 23.001 -10
l128 -128c8 -8.66699 10.5 -18.834 7.5 -30.501s-10.333 -19.167 -22 -22.5s-22.167 -0.666016 -31.5 8.00098z" />
    <glyph glyph-name="sold-out" unicode="&#xe6d6;" 
d="M704 608h130.997c8.66699 0 15.834 -2.66699 21.501 -8s9.16699 -12.333 10.5 -21l19 -195h-64l-16 160h-102v-96c0 -9.33301 -3 -17 -9 -23s-13.667 -9 -23 -9s-17 3 -23 9s-9 13.667 -9 23v96h-256v-96c0 -9.33301 -3 -17 -9 -23s-13.667 -9 -23 -9s-17 3 -23 9
s-9 13.667 -9 23v96h-102l-51 -512h345v-64h-381c-9.33301 0 -17.166 3.5 -23.499 10.5s-8.83301 15.167 -7.5 24.5l57 576c1.33301 8.66699 4.83301 15.667 10.5 21s12.834 8 21.501 8h131v22c1.33301 57.333 20 105 56 143s81.333 57.667 136 59
c54.667 -1.33301 100 -21 136 -59s54.667 -85.667 56 -143v-22zM639.997 608v22c-0.666992 39.333 -13.167 72 -37.5 98s-54.5 39.333 -90.5 40c-36 -0.666992 -66.167 -14 -90.5 -40s-36.833 -58.667 -37.5 -98v-22h256zM840.997 132
c9.33301 8.66699 20.002 11.5 32.002 8.5s19.5 -10.5 22.5 -22.5s0.166992 -22.333 -8.5 -31l-128 -128c-6.66699 -6.66699 -14.334 -10 -23.001 -10s-16.334 3.33301 -23.001 10l-128 128c-8 8.66699 -10.5 18.834 -7.5 30.501s10.333 19.167 22 22.5
s22.167 0.666016 31.5 -8.00098l73 -74v230c0 9.33301 3 17 9 23s13.667 9 23 9s17 -3 23 -9s9 -13.667 9 -23v-230z" />
    <glyph glyph-name="delete" unicode="&#xe6d7;" 
d="M160 640h-64c-9.33301 0 -17 3 -23 9s-9 13.667 -9 23s3 17 9 23s13.667 9 23 9h256v96c0 9.33301 3 17 9 23s13.667 9 23 9h256c9.33301 0 17 -3 23 -9s9 -13.667 9 -23v-96h256c9.33301 0 17 -3 23 -9s9 -13.667 9 -23s-3 -17 -9 -23s-13.667 -9 -23 -9h-64v-672
c0 -9.33301 -3 -17 -9 -23s-13.667 -9 -23 -9h-640c-9.33301 0 -17 3 -23 9s-9 13.667 -9 23v672zM608 704v64h-192v-64h192zM224 0h576v640h-576v-640zM416 128c-9.33301 0 -17 3 -23 9s-9 13.667 -9 23v320c0 9.33301 3 17 9 23s13.667 9 23 9s17 -3 23 -9
s9 -13.667 9 -23v-320c0 -9.33301 -3 -17 -9 -23s-13.667 -9 -23 -9zM608 128c-9.33301 0 -17 3 -23 9s-9 13.667 -9 23v320c0 9.33301 3 17 9 23s13.667 9 23 9s17 -3 23 -9s9 -13.667 9 -23v-320c0 -9.33301 -3 -17 -9 -23s-13.667 -9 -23 -9z" />
    <glyph glyph-name="minus" unicode="&#xe6d8;" 
d="M128 352h768c9.33301 0 17 3 23 9s9 13.667 9 23s-3 17 -9 23s-13.667 9 -23 9h-768c-9.33301 0 -17 -3 -23 -9s-9 -13.667 -9 -23s3 -17 9 -23s13.667 -9 23 -9z" />
    <glyph glyph-name="plus" unicode="&#xe6d9;" 
d="M480 416v352c0 9.33301 3 17 9 23s13.667 9 23 9s17 -3 23 -9s9 -13.667 9 -23v-352h352c9.33301 0 17 -3 23 -9s9 -13.667 9 -23s-3 -17 -9 -23s-13.667 -9 -23 -9h-352v-352c0 -9.33301 -3 -17 -9 -23s-13.667 -9 -23 -9s-17 3 -23 9s-9 13.667 -9 23v352h-352
c-9.33301 0 -17 3 -23 9s-9 13.667 -9 23s3 17 9 23s13.667 9 23 9h352z" />
    <glyph glyph-name="check" unicode="&#xe6da;" 
d="M407 189l-211.002 210.998c-8.66699 8.66699 -19 11.334 -31 8.00098s-19.5 -10.833 -22.5 -22.5s-0.166992 -22.167 8.5 -31.5l256 -256l512 512c6 6.66699 8.83301 14.334 8.5 23.001s-3.66602 16.167 -9.99902 22.5s-13.666 9.5 -21.999 9.5s-15.833 -3 -22.5 -9z" />
    <glyph glyph-name="close" unicode="&#xe6db;" 
d="M764 681l-252 -252l-252 252c-6.66699 6 -14.167 9 -22.5 9s-15.666 -3.16699 -21.999 -9.5s-9.5 -13.666 -9.5 -21.999s3 -15.833 9 -22.5l252 -252l-252 -252c-8.66699 -8.66699 -11.5 -19 -8.5 -31s10.333 -19.5 22 -22.5s22.167 -0.166992 31.5 8.5l252 252l252 -252
c6.66699 -6 14.167 -9 22.5 -9s15.666 3.16699 21.999 9.5s9.5 13.666 9.5 21.999s-3 15.833 -9 22.5l-252 252l252 252c8.66699 8.66699 11.5 19 8.5 31s-10.5 19.5 -22.5 22.5s-22.333 0.166992 -31 -8.5z" />
    <glyph glyph-name="d-arrow-right" unicode="&#xe6dc;" 
d="M453 747c6 5.33301 13 8 21 8s15 -2.66699 21 -8l331 -341c6 -6 9 -13.333 9 -22s-3 -16 -9 -22l-331 -341c-6 -5.33301 -13 -8 -21 -8s-15 3 -21 9s-9 13 -9 21s3 15 9 21l312 320l-312 320c-6 6 -9 13 -9 21s3 15.333 9 22zM197 747c6 5.33301 13 8 21 8
s15 -2.66699 21 -8l331 -341c6 -6 9 -13.333 9 -22s-3 -16 -9 -22l-331 -341c-6 -5.33301 -13 -8 -21 -8s-15 3 -21 9s-9 13 -9 21s3 15 9 21l312 320l-312 320c-6 6 -9 13 -9 21s3 15.333 9 22z" />
    <glyph glyph-name="d-arrow-left" unicode="&#xe6dd;" 
d="M529 747c6 5.33301 13 8 21 8s15 -3 21 -9s9 -13 9 -21s-3 -15 -9 -21l-312 -320l312 -320c6 -6 9 -13.167 9 -21.5s-3 -15.333 -9 -21s-13 -8.5 -21 -8.5s-15 2.66699 -21 8l-331 341c-6 6.66699 -9 14.167 -9 22.5s3 15.5 9 21.5zM785 747c6 5.33301 13 8 21 8
s15 -3 21 -9s9 -13 9 -21s-3 -15 -9 -21l-312 -320l312 -320c6 -6 9 -13.167 9 -21.5s-3 -15.333 -9 -21s-13 -8.5 -21 -8.5s-15 2.66699 -21 8l-331 341c-6 6.66699 -9 14.167 -9 22.5s3 15.5 9 21.5z" />
    <glyph glyph-name="arrow-left" unicode="&#xe6de;" 
d="M609 747l-331 -341c-6 -6 -9 -13.167 -9 -21.5s3 -15.833 9 -22.5l331 -341c6 -5.33301 13 -8 21 -8s15 3 21 9s9 13 9 21s-3 15 -9 21l-312 320l312 320c6 6 9 13 9 21s-3 15 -9 21s-13 9 -21 9s-15 -2.66699 -21 -8z" />
    <glyph glyph-name="arrow-down" unicode="&#xe6df;" 
d="M832 555l-320 -312l-320 312c-6 6 -13 9 -21 9s-15 -3 -21 -9s-9 -13 -9 -21s2.66699 -14.667 8 -20l341 -332c6 -6 13.333 -9 22 -9s16 3 22 9l341 331c5.33301 6 8 13.167 8 21.5s-3 15.333 -9 21s-13 8.5 -21 8.5s-15 -3 -21 -9z" />
    <glyph glyph-name="arrow-right" unicode="&#xe6e0;" 
d="M341 747c-6 -6.66699 -9 -14 -9 -22s3 -15 9 -21l312 -320l-312 -320c-6 -6 -9 -13 -9 -21s3 -15 9 -21s13 -9 21 -9s15 2.66699 21 8l331 341c6 6 9 13.333 9 22s-3 16 -9 22l-331 341c-6 5.33301 -13 8 -21 8s-15 -2.66699 -21 -8z" />
    <glyph glyph-name="arrow-up" unicode="&#xe6e1;" 
d="M489 552l-340 -357c-6 -6.66699 -9 -14 -9 -22s3 -15.333 9 -22v-1c6 -6 13.167 -9 21.5 -9s15.5 3 21.5 9l320 336l320 -336c6 -6 13.167 -9 21.5 -9s15.5 3 21.5 9v1c6 6.66699 9 14 9 22s-3 15.333 -9 22l-340 357c-6 6 -13.667 9 -23 9s-17 -3 -23 -9z" />
    <glyph glyph-name="key" unicode="&#xe6e2;" 
d="M448 440l0.00195312 359.999c0 8.66699 3.16699 16.167 9.5 22.5s13.833 9.5 22.5 9.5h192c9.33301 0 17 -3 23 -9s9 -13.667 9 -23s-3 -17 -9 -23s-13.667 -9 -23 -9h-160v-128h160c9.33301 0 17 -3 23 -9s9 -13.667 9 -23s-3 -17 -9 -23s-13.667 -9 -23 -9h-160v-128
c69.333 -1.33301 127.666 -24.5 174.999 -69.5s74 -101.833 80 -170.5c2.66699 -69.333 -16.833 -129.166 -58.5 -179.499s-96.5 -80.5 -164.5 -90.5c-69.333 -7.33301 -130.333 8.16699 -183 46.5s-86.334 91.5 -101.001 159.5c-11.333 68 0.5 129.667 35.5 185
s85.833 92.333 152.5 111zM512.002 -0.000976562c54.667 1.33301 100 20 136 56s54.667 81.333 56 136c-1.33301 54.667 -20 100 -56 136s-81.333 54.667 -136 56c-54.667 -1.33301 -100 -20 -136 -56s-54.667 -81.333 -56 -136c1.33301 -54.667 20 -100 56 -136
s81.333 -54.667 136 -56z" />
    <glyph glyph-name="user" unicode="&#xe6e3;" 
d="M512 384c54.667 1.33301 100 20 136 56s54.667 81.333 56 136c-1.33301 54.667 -20 100 -56 136s-81.333 54.667 -136 56c-54.667 -1.33301 -100 -20 -136 -56s-54.667 -81.333 -56 -136c1.33301 -54.667 20 -100 56 -136s81.333 -54.667 136 -56zM512 320
c-72.667 2 -133 27 -181 75s-73 108.333 -75 181c2 72.667 27 133 75 181s108.333 73 181 75c72.667 -2 133 -27 181 -75s73 -108.333 75 -181c-2 -72.667 -27 -133 -75 -181s-108.333 -73 -181 -75zM832 0v96c-0.666992 27.333 -10 50 -28 68s-40.667 27.333 -68 28h-448
c-27.333 -0.666992 -50 -10 -68 -28s-27.333 -40.667 -28 -68v-96c0 -9.33301 -3 -17 -9 -23s-13.667 -9 -23 -9s-17 3 -23 9s-9 13.667 -9 23v96c1.33301 45.333 17 83 47 113s67.667 45.667 113 47h448c45.333 -1.33301 83 -17 113 -47s45.667 -67.667 47 -113v-96
c0 -9.33301 -3 -17 -9 -23s-13.667 -9 -23 -9s-17 3 -23 9s-9 13.667 -9 23z" />
    <glyph glyph-name="unlock" unicode="&#xe6e4;" 
d="M224 448c-9.33301 0 -17 -3 -23 -9s-9 -13.667 -9 -23v-384c0 -9.33301 3 -17 9 -23s13.667 -9 23 -9h576c9.33301 0 17 3 23 9s9 13.667 9 23v384c0 9.33301 -3 17 -9 23s-13.667 9 -23 9h-576zM224 512h576c27.333 -0.666992 50 -10 68 -28s27.333 -40.667 28 -68v-384
c-0.666992 -27.333 -10 -50 -28 -68s-40.667 -27.333 -68 -28h-576c-27.333 0.666992 -50 10 -68 28s-27.333 40.667 -28 68v384c0.666992 27.333 10 50 28 68s40.667 27.333 68 28zM512 352c9.33301 0 17 -3 23 -9s9 -13.667 9 -23v-192c0 -9.33301 -3 -17 -9 -23
s-13.667 -9 -23 -9s-17 3 -23 9s-9 13.667 -9 23v192c0 9.33301 3 17 9 23s13.667 9 23 9zM690 647c-18 43.333 -46.665 75.665 -85.998 96.998s-82 28 -128 20c-46 -9.33301 -83.333 -31.166 -112 -65.499s-43.334 -75.166 -44.001 -122.499v-64h352l96 -38v-26h-512v128
c1.33301 62.667 20.833 117 58.5 163s87.5 75.667 149.5 89c61.333 10.667 118.166 1.66699 170.499 -27s90.833 -72 115.5 -130z" />
    <glyph glyph-name="lock" unicode="&#xe6e5;" 
d="M224 448c-9.33301 0 -17 -3 -23 -9s-9 -13.667 -9 -23v-384c0 -9.33301 3 -17 9 -23s13.667 -9 23 -9h576c9.33301 0 17 3 23 9s9 13.667 9 23v384c0 9.33301 -3 17 -9 23s-13.667 9 -23 9h-576zM224 512h576c27.333 -0.666992 50 -10 68 -28s27.333 -40.667 28 -68v-384
c-0.666992 -27.333 -10 -50 -28 -68s-40.667 -27.333 -68 -28h-576c-27.333 0.666992 -50 10 -68 28s-27.333 40.667 -28 68v384c0.666992 27.333 10 50 28 68s40.667 27.333 68 28zM512 352c9.33301 0 17 -3 23 -9s9 -13.667 9 -23v-192c0 -9.33301 -3 -17 -9 -23
s-13.667 -9 -23 -9s-17 3 -23 9s-9 13.667 -9 23v192c0 9.33301 3 17 9 23s13.667 9 23 9zM704 512v64c-1.33301 54.667 -20 100 -56 136s-81.333 54.667 -136 56c-54.667 -1.33301 -100 -20 -136 -56s-54.667 -81.333 -56 -136v-64h384zM512 832c72.667 -2 133 -27 181 -75
s73 -108.333 75 -181v-128h-512v128c2 72.667 27 133 75 181s108.333 73 181 75z" />
    <glyph glyph-name="top" unicode="&#xe6e6;" 
d="M572 691l0.00292969 -601c0 -8 -2.83301 -14.833 -8.5 -20.5s-12.834 -8.5 -21.501 -8.5s-15.834 2.83301 -21.501 8.5s-8.5 12.5 -8.5 20.5v601l-220 -234c-5.33301 -6 -12.333 -9 -21 -9s-15.834 3.16699 -21.501 9.5s-8.5 13.833 -8.5 22.5s3 16.334 9 23.001l271 288
c5.33301 6 12.333 9 21 9s15.667 -3 21 -9l271 -288c6 -6.66699 9 -14.334 9 -23.001s-2.83301 -16.167 -8.5 -22.5s-12.667 -9.5 -21 -9.5s-15.5 3 -21.5 9z" />
    <glyph glyph-name="top-right" unicode="&#xe6e7;" 
d="M768 640h-414c-9.33301 0 -17 3 -23 9s-9 13.667 -9 23s3 17 9 23s13.667 9 23 9h446c9.33301 0 17 -3 23 -9s9 -13.667 9 -23v-448c0 -9.33301 -3 -17 -9 -23s-13.667 -9 -23 -9s-17 3 -23 9s-9 13.667 -9 23v416zM777 695c6.66699 6 14.334 9 23.001 9
s16.167 -3.16699 22.5 -9.5s9.5 -13.833 9.5 -22.5s-3 -16.334 -9 -23.001l-544 -544c-6.66699 -6 -14.334 -9 -23.001 -9s-16.167 3.16699 -22.5 9.5s-9.5 13.833 -9.5 22.5s3 16.334 9 23.001z" />
    <glyph glyph-name="top-left" unicode="&#xe6e8;" 
d="M256 640h416c9.33301 0 17 3 23 9s9 13.667 9 23s-3 17 -9 23s-13.667 9 -23 9h-448c-9.33301 0 -17 -3 -23 -9s-9 -13.667 -9 -23v-448c0 -9.33301 3 -17 9 -23s13.667 -9 23 -9s17 3 23 9s9 13.667 9 23v416zM247 695c-6.66699 6 -14.334 9 -23.001 9
s-16.167 -3.16699 -22.5 -9.5s-9.5 -13.833 -9.5 -22.5s3 -16.334 9 -23.001l544 -544c6.66699 -6 14.334 -9 23.001 -9s16.167 3.16699 22.5 9.5s9.5 13.833 9.5 22.5s-3 16.334 -9 23.001z" />
    <glyph glyph-name="right" unicode="&#xe6e9;" 
d="M755 416h-595c-9.33301 0 -17 -3 -23 -9s-9 -13.667 -9 -23s3 -17 9 -23s13.667 -9 23 -9h595l-234 -233c-6 -6.66699 -9 -14.334 -9 -23.001s3.16699 -16.167 9.5 -22.5s13.833 -9.5 22.5 -9.5s16.334 3 23.001 9l288 288c6 6.66699 9 14.334 9 23.001
s-3 16.334 -9 23.001l-288 288c-6.66699 6 -14.334 9 -23.001 9s-16.167 -3.16699 -22.5 -9.5s-9.5 -13.833 -9.5 -22.5s3 -16.334 9 -23.001z" />
    <glyph glyph-name="back" unicode="&#xe6ea;" 
d="M224 416h640c9.33301 0 17 -3 23 -9s9 -13.667 9 -23s-3 -17 -9 -23s-13.667 -9 -23 -9h-640c-9.33301 0 -17 3 -23 9s-9 13.667 -9 23s3 17 9 23s13.667 9 23 9zM237 384l266 -265c6 -6.66699 9 -14.334 9 -23.001s-3.16699 -16.167 -9.5 -22.5s-13.833 -9.5 -22.5 -9.5
s-16.334 3 -23.001 9l-288 288c-6 6.66699 -9 14.334 -9 23.001s3 16.334 9 23.001l288 288c6.66699 6 14.334 9 23.001 9s16.167 -3.16699 22.5 -9.5s9.5 -13.833 9.5 -22.5s-3 -16.334 -9 -23.001z" />
    <glyph glyph-name="bottom" unicode="&#xe6eb;" 
d="M544 90v638c0 9.33301 -3 17 -9 23s-13.667 9 -23 9s-17 -3 -23 -9s-9 -13.667 -9 -23v-638l-233 248c-6.66699 6.66699 -14.334 10 -23.001 10s-16.167 -3.5 -22.5 -10.5s-9.5 -14.833 -9.5 -23.5s3 -16.667 9 -24l288 -306c6.66699 -6.66699 14.334 -10 23.001 -10
s16.334 3.33301 23.001 10l288 306c6 7.33301 9 15.333 9 24s-3.16699 16.5 -9.5 23.5s-13.833 10.5 -22.5 10.5s-16.334 -3.33301 -23.001 -10z" />
    <glyph glyph-name="bottom-right" unicode="&#xe6ec;" 
d="M352 128c-9.33301 0 -17 -3 -23 -9s-9 -13.667 -9 -23s3 -17 9 -23s13.667 -9 23 -9h448c9.33301 0 17 3 23 9s9 13.667 9 23v448c0 9.33301 -3 17 -9 23s-13.667 9 -23 9s-17 -3 -23 -9s-9 -13.667 -9 -23v-416h-416zM777 73c6.66699 -6 14.334 -9 23.001 -9
s16.167 3.16699 22.5 9.5s9.5 13.833 9.5 22.5s-3 16.334 -9 23.001l-544 544c-6.66699 6 -14.334 9 -23.001 9s-16.167 -3.16699 -22.5 -9.5s-9.5 -13.833 -9.5 -22.5s3 -16.334 9 -23.001z" />
    <glyph glyph-name="bottom-left" unicode="&#xe6ed;" 
d="M256 128h416c9.33301 0 17 -3 23 -9s9 -13.667 9 -23s-3 -17 -9 -23s-13.667 -9 -23 -9h-448c-9.33301 0 -17 3 -23 9s-9 13.667 -9 23v448c0 9.33301 3 17 9 23s13.667 9 23 9s17 -3 23 -9s9 -13.667 9 -23v-416zM247 73c-6.66699 -6 -14.334 -9 -23.001 -9
s-16.167 3.16699 -22.5 9.5s-9.5 13.833 -9.5 22.5s3 16.334 9 23.001l544 544c6.66699 6 14.334 9 23.001 9s16.167 -3.16699 22.5 -9.5s9.5 -13.833 9.5 -22.5s-3 -16.334 -9 -23.001z" />
    <glyph glyph-name="moon-night" unicode="&#xe6ee;" 
d="M384 384c0.666992 79.333 19.834 152.668 57.501 220.001s90.5 121.666 158.5 162.999c-65.333 4 -126.833 -7.33301 -184.5 -34s-106.167 -66 -145.5 -118s-63.833 -109.333 -73.5 -172s-3.83398 -125 17.499 -187h189c-12.667 42 -19 84.667 -19 128zM171 192.002
c-42 92 -53.499 185.33 -34.499 279.997s65.5 176.334 139.5 245.001c75.333 66.667 161.166 104.5 257.499 113.5s187.833 -12.167 274.5 -63.5c-67.333 -4.66699 -128.5 -24.667 -183.5 -60s-98.5 -82.666 -130.5 -141.999s-47.5 -121.666 -46.5 -186.999
s18.167 -127.333 51.5 -186h-328zM32.001 255.999h960c21.333 0 32 -10.667 32 -32v0c0 -21.333 -10.667 -32 -32 -32h-960c-21.333 0 -32 10.667 -32 32v0c0 21.333 10.667 32 32 32zM160.001 127.999h384c9.33301 0 17 -3 23 -9s9 -13.667 9 -23s-3 -17 -9 -23
s-13.667 -9 -23 -9h-384c-9.33301 0 -17 3 -23 9s-9 13.667 -9 23s3 17 9 23s13.667 9 23 9zM320.001 -0.000976562h224c9.33301 0 17 -3 23 -9s9 -13.667 9 -23v0c0 -9.33301 -3 -17 -9 -23s-13.667 -9 -23 -9h-224c-9.33301 0.666992 -17 4 -23 10s-9 13.333 -9 22v0
c0 9.33301 3 17 9 23s13.667 9 23 9z" />
    <glyph glyph-name="moon" unicode="&#xe6f0;" 
d="M240 656c-49.333 -51.333 -82.502 -110.165 -99.502 -176.498s-15.667 -133.666 4 -201.999s54.667 -126 105 -173s110 -78.333 179 -94s136.333 -12.834 202 8.49902s122.167 58.333 169.5 111c-77.333 -18.667 -153.166 -17.667 -227.499 3
s-139.666 59.167 -195.999 115.5s-94.833 121.666 -115.5 195.999s-21.667 150.166 -3 227.499zM421.998 294.001c74.667 -72 161.001 -109.501 259.001 -112.501s186.667 28.833 266 95.5c-28.667 -108.667 -86.334 -194.167 -173.001 -256.5s-186 -89.833 -298 -82.5
c-112 10.667 -205.667 53.667 -281 129s-118.333 169 -129 281c-7.33301 112 20.167 211.333 82.5 298s147.833 144.334 256.5 173.001c-66.667 -79.333 -98.5 -168 -95.5 -266s40.5 -184.333 112.5 -259z" />
    <glyph glyph-name="cloudy-and-sunny" unicode="&#xe6f1;" 
d="M598 0l-269.999 -0.000976562c-70.667 -0.666992 -130.667 21.333 -180 66s-77.333 102.334 -84 173.001c-2.66699 70.667 17.333 131.334 60 182.001s99.334 80.667 170.001 90c41.333 78.667 101.166 134.167 179.499 166.5s160.166 35.166 245.499 8.49902
c84 -30 147.667 -81.333 191 -154s58.333 -153 45 -241c-17.333 -87.333 -58.833 -157.833 -124.5 -211.5s-143.167 -80.167 -232.5 -79.5zM327.001 63.999l272.001 -0.00195312c73.333 -0.666992 136.833 20.833 190.5 64.5s87.5 101.5 101.5 173.5
c12 72 0.166992 137.833 -35.5 197.5s-87.834 101.5 -156.501 125.5c-70 22 -137 19.833 -201 -6.5s-113 -71.833 -147 -136.5l-16 -31l-35 -4c-52.667 -6.66699 -95 -29.167 -127 -67.5s-47 -83.833 -45 -136.5c5.33301 -53.333 26.5 -96.666 63.5 -129.999
s82.167 -49.666 135.5 -48.999zM140.002 393.997c-37.333 38 -61.001 81.8301 -71.001 131.497s-4.83301 99 15.5 148s51.666 87.5 93.999 115.5s90 41.833 143 41.5s100.5 -14.666 142.5 -42.999s73.333 -67.166 94 -116.499c-18 -2 -38.667 -8.33301 -62 -19
c-16 36.667 -40.167 65.334 -72.5 86.001s-68.333 30.5 -108 29.5s-75 -12.5 -106 -34.5s-53.667 -51.667 -68 -89s-17.166 -74.5 -8.49902 -111.5s27.334 -69.167 56.001 -96.5z" />
    <glyph glyph-name="partly-cloudy" unicode="&#xe6f2;" 
d="M598 64l-269.999 -0.000976562c-70.667 -0.666992 -130.667 21.333 -180 66s-77.333 102.334 -84 173.001c-2.66699 70.667 17.333 131.334 60 182.001s99.334 80.667 170.001 90c41.333 78.667 101.166 134.167 179.499 166.5s160.166 35.166 245.499 8.49902
c84 -30 147.667 -81.333 191 -154s58.333 -153 45 -241c-17.333 -87.333 -58.833 -157.833 -124.5 -211.5s-143.167 -80.167 -232.5 -79.5zM327.001 127.999l272.001 -0.00195312c73.333 -0.666992 136.833 20.833 190.5 64.5s87.5 101.5 101.5 173.5
c12 72 0.166992 137.833 -35.5 197.5s-87.834 101.5 -156.501 125.5c-70 22 -137 19.833 -201 -6.5s-113 -71.833 -147 -136.5l-16 -31l-35 -4c-52.667 -6.66699 -95 -29.167 -127 -67.5s-47 -83.833 -45 -136.5c5.33301 -53.333 26.5 -96.666 63.5 -129.999
s82.167 -49.666 135.5 -48.999z" />
    <glyph glyph-name="cloudy" unicode="&#xe6f3;" 
d="M737 538l-33.001 7.99414l-12 32c-15.333 40.667 -40.333 72.334 -75 95.001s-73.667 32.667 -117 30s-80.833 -17.5 -112.5 -44.5s-52.5 -61.5 -62.5 -103.5l-9 -39l-39 -9c-48.667 -12 -86.5 -37.333 -113.5 -76s-38.5 -83 -34.5 -133
c6.66699 -49.333 27.667 -89.666 63 -120.999s78 -47.666 128 -48.999h368c28 0 54.5 5.33301 79.5 16s47.333 25.834 67 45.501s34.834 42 45.501 67s16 51.5 16 79.5c-0.666992 48.667 -15.5 91.334 -44.5 128.001s-67.167 61.334 -114.5 74.001zM751.999 599.994
c62 -16 111.834 -48 149.501 -96s57.167 -104 58.5 -168c-2 -76.667 -28.5 -140.667 -79.5 -192s-115.167 -78 -192.5 -80h-368c-66.667 1.33301 -123.5 23 -170.5 65s-75.167 96 -84.5 162c-6 66.667 9.16699 125.667 45.5 177s86.833 85.333 151.5 102
c14 56 42.167 101.833 84.5 137.5s92.166 55.5 149.499 59.5c58 3.33301 110 -10.167 156 -40.5s79.333 -72.5 100 -126.5z" />
    <glyph glyph-name="sunny" unicode="&#xe6f6;" 
d="M512 192c54.667 1.33301 100 20 136 56s54.667 81.333 56 136c-1.33301 54.667 -20 100 -56 136s-81.333 54.667 -136 56c-54.667 -1.33301 -100 -20 -136 -56s-54.667 -81.333 -56 -136c1.33301 -54.667 20 -100 56 -136s81.333 -54.667 136 -56zM512 128
c-72.667 2 -133 27 -181 75s-73 108.333 -75 181c2 72.667 27 133 75 181s108.333 73 181 75c72.667 -2 133 -27 181 -75s73 -108.333 75 -181c-2 -72.667 -27 -133 -75 -181s-108.333 -73 -181 -75zM512 832c9.33301 0 17 -3 23 -9s9 -13.667 9 -23v-64
c0 -9.33301 -3 -17 -9 -23s-13.667 -9 -23 -9s-17 3 -23 9s-9 13.667 -9 23v64c0 9.33301 3 17 9 23s13.667 9 23 9zM512 64c9.33301 0 17 -3 23 -9s9 -13.667 9 -23v-64c0 -9.33301 -3 -17 -9 -23s-13.667 -9 -23 -9s-17 3 -23 9s-9 13.667 -9 23v64c0 9.33301 3 17 9 23
s13.667 9 23 9zM195 701c6.66699 6 14.333 8.99902 23 8.99902s16 -3 22 -9l46 -45c8 -9.33301 10.5 -19.833 7.5 -31.5s-10.333 -19 -22 -22s-22.167 -0.5 -31.5 7.5l-45 46c-6 6 -9 13.333 -9 22s3 16.334 9 23.001zM737.999 157.999
c6.66699 6 14.332 8.99805 22.999 8.99805s16.334 -3 23.001 -9l45 -46c6 -6 9 -13.333 9 -22s-3.16699 -16.167 -9.5 -22.5s-13.833 -9.5 -22.5 -9.5s-16 3 -22 9l-46 45c-6 6.66699 -9 14.334 -9 23.001s3 16.334 9 23.001zM63.9971 383.997c0 9.33301 3 17 9 23
s13.667 9 23 9h64c9.33301 0 17 -3 23 -9s9 -13.667 9 -23s-3 -17 -9 -23s-13.667 -9 -23 -9h-64c-9.33301 0 -17 3 -23 9s-9 13.667 -9 23zM831.997 383.997c0 9.33301 3 17 9 23s13.667 9 23 9h64c9.33301 0 17 -3 23 -9s9 -13.667 9 -23s-3 -17 -9 -23s-13.667 -9 -23 -9
h-64c-9.33301 0 -17 3 -23 9s-9 13.667 -9 23zM194.997 66.9971c-6 6.66699 -9 14.334 -9 23.001s3 16 9 22l45 46c6.66699 6 14.334 9 23.001 9s16.167 -3.16699 22.5 -9.5s9.5 -13.833 9.5 -22.5s-3 -16.334 -9 -23.001l-46 -45c-6 -6 -13.333 -9 -22 -9
s-16.334 3 -23.001 9zM737.997 609.997c-6 6.66699 -8.99805 14.332 -8.99805 22.999s3 16.334 9 23.001l46 45c6 6 13.333 9 22 9s16.167 -3.16699 22.5 -9.5s9.5 -13.833 9.5 -22.5s-3 -16 -9 -22l-45 -46c-6.66699 -6 -14.334 -9 -23.001 -9s-16.334 3 -23.001 9z" />
    <glyph glyph-name="sunset" unicode="&#xe6f7;" 
d="M83 256c-26.667 94 -24.833 185.167 5.5 273.5s84.833 161.166 163.5 218.499c80 56 166.667 84 260 84s180 -28 260 -84c78.667 -57.333 133.167 -130.166 163.5 -218.499s32.166 -179.5 5.49902 -273.5h-67c27.333 81.333 29 161.333 5 240s-70.333 144 -139 196
c-69.333 50.667 -145.166 76 -227.499 76s-158.5 -25.333 -228.5 -76c-68.667 -52 -115 -117.333 -139 -196s-22.333 -158.667 5 -240h-67zM32.001 192h960c21.333 0 32 -10.667 32 -32v0c0 -21.333 -10.667 -32 -32 -32h-960c-21.333 0 -32 10.667 -32 32v0
c0 21.333 10.667 32 32 32zM288.001 64h448c21.333 0 32 -10.667 32 -32v0c0 -21.333 -10.667 -32 -32 -32h-448c-21.333 0 -32 10.667 -32 32v0c0 21.333 10.667 32 32 32z" />
    <glyph glyph-name="sunrise-1" unicode="&#xe6f8;" 
d="M32 192h960c9.33301 0 17 -3 23 -9s9 -13.667 9 -23s-3 -17 -9 -23s-13.667 -9 -23 -9h-960c-9.33301 0 -17 3 -23 9s-9 13.667 -9 23s3 17 9 23s13.667 9 23 9zM288 64h448c21.333 0 32 -10.667 32 -32v0c0 -21.333 -10.667 -32 -32 -32h-448
c-21.333 0 -32 10.667 -32 32v0c0 21.333 10.667 32 32 32zM160 256c2.66699 100 36.998 183 102.998 249s149 100.333 249 103c100 -2.66699 183 -37 249 -103s100.333 -149 103 -249h-64c-2 81.333 -30.167 149.166 -84.5 203.499s-122.166 82.5 -203.499 84.5
c-81.333 -2 -149.166 -30.167 -203.499 -84.5s-82.5 -122.166 -84.5 -203.499h-64zM511.998 832c9.33301 0 17 -3 23 -9s9 -13.667 9 -23v-96c0 -9.33301 -3 -17 -9 -23s-13.667 -9 -23 -9s-17 3 -23 9s-9 13.667 -9 23v96c0 9.33301 3 17 9 23s13.667 9 23 9zM918.998 663
c6.66699 -6.66699 10 -14.167 10 -22.5s-3.33301 -15.833 -10 -22.5l-68 -68c-8.66699 -8.66699 -18.834 -11.334 -30.501 -8.00098s-19.167 10.833 -22.5 22.5s-0.666016 21.834 8.00098 30.501l68 68c6.66699 6.66699 14.167 10 22.5 10s15.833 -3.33301 22.5 -10z
M104.998 663c6.66699 6.66699 14.167 10 22.5 10s15.833 -3.33301 22.5 -10l68 -68c8.66699 -8.66699 11.334 -18.834 8.00098 -30.501s-10.833 -19.167 -22.5 -22.5s-21.834 -0.666016 -30.501 8.00098l-68 68c-6.66699 6.66699 -10 14.167 -10 22.5
s3.33301 15.833 10 22.5z" />
    <glyph glyph-name="sunrise" unicode="&#xe6f9;" 
d="M32 128h960c9.33301 0 17 -3 23 -9s9 -13.667 9 -23s-3 -17 -9 -23s-13.667 -9 -23 -9h-960c-9.33301 0 -17 3 -23 9s-9 13.667 -9 23s3 17 9 23s13.667 9 23 9zM161 224c10.667 92.667 48.5 168.834 113.5 228.501s144.167 90.5 237.5 92.5
c93.333 -2 172.5 -32.833 237.5 -92.5s102.833 -135.834 113.5 -228.501h-65c-9.33301 74.667 -40.5 135.667 -93.5 183s-117.167 71.666 -192.5 72.999c-75.333 -1.33301 -139.5 -25.666 -192.5 -72.999s-84.167 -108.333 -93.5 -183h-65zM512 768c9.33301 0 17 -3 23 -9
s9 -13.667 9 -23v-96c0 -9.33301 -3 -17 -9 -23s-13.667 -9 -23 -9s-17 3 -23 9s-9 13.667 -9 23v96c0 9.33301 3 17 9 23s13.667 9 23 9zM919 599c6.66699 -6.66699 10 -14.167 10 -22.5s-3.33301 -15.833 -10 -22.5l-68 -68
c-8.66699 -8.66699 -18.834 -11.334 -30.501 -8.00098s-19.167 10.833 -22.5 22.5s-0.666016 21.834 8.00098 30.501l68 68c6.66699 6.66699 14.167 10 22.5 10s15.833 -3.33301 22.5 -10zM105 599c6.66699 6.66699 14.167 10 22.5 10s15.833 -3.33301 22.5 -10l68 -68
c8.66699 -8.66699 11.334 -18.834 8.00098 -30.501s-10.833 -19.167 -22.5 -22.5s-21.834 -0.666016 -30.501 8.00098l-68 68c-6.66699 6.66699 -10 14.167 -10 22.5s3.33301 15.833 10 22.5z" />
    <glyph glyph-name="heavy-rain" unicode="&#xe6fa;" 
d="M739 605l-34.9961 6.00293l-13 34c-16 39.333 -41.167 70.166 -75.5 92.499s-72.833 32.166 -115.5 29.499s-79.834 -17.167 -111.501 -43.5s-52.834 -60.5 -63.501 -102.5l-10 -40l-41 -7c-43.333 -8.66699 -78.333 -28.834 -105 -60.501s-40.334 -69.5 -41.001 -113.5
c1.33301 -50 18.5 -91.5 51.5 -124.5s74.5 -50.167 124.5 -51.5h400c50.667 1.33301 93.667 18 129 50s56 73.333 62 124c3.33301 50.667 -9.33398 95.167 -38.001 133.5s-68 62.833 -118 73.5zM960.004 416.003c-2 -72.667 -27.168 -132.997 -75.501 -180.997
s-108.5 -73 -180.5 -75h-400c-32.667 0 -63.5 6 -92.5 18s-54.833 29.333 -77.5 52s-40 48.667 -52 78s-18 60 -18 92c0.666992 60 19.334 111.667 56.001 155s84.334 70.666 143.001 81.999c14.667 54.667 42.834 99.667 84.501 135s91.167 55 148.5 59
c56.667 3.33301 108 -9.83398 154 -39.501s79.667 -70.834 101 -123.501c61.333 -13.333 111.166 -43 149.499 -89s58.166 -100.333 59.499 -163zM224.003 96.0059c9.33301 0 17 -3 23 -9s9 -13.667 9 -23v-96c0 -9.33301 -3 -17 -9 -23s-13.667 -9 -23 -9s-17 3 -23 9
s-9 13.667 -9 23v96c0 9.33301 3 17 9 23s13.667 9 23 9zM416.003 96.0059c9.33301 0 17 -3 23 -9s9 -13.667 9 -23v-96c0 -9.33301 -3 -17 -9 -23s-13.667 -9 -23 -9s-17 3 -23 9s-9 13.667 -9 23v96c0 9.33301 3 17 9 23s13.667 9 23 9zM608.003 96.0059
c9.33301 0 17 -3 23 -9s9 -13.667 9 -23v-96c0 -9.33301 -3 -17 -9 -23s-13.667 -9 -23 -9s-17 3 -23 9s-9 13.667 -9 23v96c0 9.33301 3 17 9 23s13.667 9 23 9zM800.003 96.0059c9.33301 0 17 -3 23 -9s9 -13.667 9 -23v-96c0 -9.33301 -3 -17 -9 -23s-13.667 -9 -23 -9
s-17 3 -23 9s-9 13.667 -9 23v96c0 9.33301 3 17 9 23s13.667 9 23 9z" />
    <glyph glyph-name="lightning" unicode="&#xe6fb;" 
d="M288 225l0.00488281 -63.9951c-64.667 5.33301 -117.834 30.333 -159.501 75s-63.167 99.334 -64.5 164.001c0.666992 60 19.334 111.667 56.001 155s84.334 70.666 143.001 81.999c14.667 54.667 42.834 99.667 84.501 135s91.167 55 148.5 59
c56.667 3.33301 108 -9.83398 154 -39.501s79.667 -70.834 101 -123.501c63.333 -13.333 114.166 -43.833 152.499 -91.5s56.833 -103.834 55.5 -168.501c-2.66699 -64 -24.5 -118.667 -65.5 -164s-93.5 -72.666 -157.5 -81.999v65c46.667 8.66699 84.667 30.167 114 64.5
s44.666 75.166 45.999 122.499c-0.666992 48 -15.334 89.333 -44.001 124s-66.334 57 -113.001 67l-35 6l-13 34c-16 39.333 -41.167 70.166 -75.5 92.499s-72.833 32.166 -115.5 29.499s-79.834 -17.167 -111.501 -43.5s-52.834 -60.5 -63.501 -102.5l-10 -40l-41 -7
c-43.333 -8.66699 -78.333 -28.834 -105 -60.501s-40.334 -69.5 -41.001 -113.5c0.666992 -47.333 16 -87.166 46 -119.499s68 -50.833 114 -55.5zM416.005 160.005c-12 0.666992 -21 6.16895 -27 16.502s-6.33301 20.833 -1 31.5l128 224c6.66699 10.667 16 16 28 16
s21.167 -5.33301 27.5 -16s6.5 -21.334 0.5 -32.001l-101 -176h137c12 -0.666992 21 -6.16699 27 -16.5s6.33301 -20.833 1 -31.5l-128 -224c-4.66699 -8 -11.167 -13 -19.5 -15s-16.5 -0.833008 -24.5 3.5s-13 10.666 -15 18.999s-1 16.5 3 24.5l101 176h-137z" />
    <glyph glyph-name="light-rain" unicode="&#xe6fc;" 
d="M739 605l-34.9961 6.00293l-13 34c-16 39.333 -41.167 70.166 -75.5 92.499s-72.833 32.166 -115.5 29.499s-79.834 -17.167 -111.501 -43.5s-52.834 -60.5 -63.501 -102.5l-10 -40l-41 -7c-43.333 -8.66699 -78.333 -28.834 -105 -60.501s-40.334 -69.5 -41.001 -113.5
c1.33301 -50 18.5 -91.5 51.5 -124.5s74.5 -50.167 124.5 -51.5h400c50.667 1.33301 93.667 18 129 50s56 73.333 62 124c3.33301 50.667 -9.33398 95.167 -38.001 133.5s-68 62.833 -118 73.5zM960.004 416.003c-2 -72.667 -27.168 -132.997 -75.501 -180.997
s-108.5 -73 -180.5 -75h-400c-32.667 0 -63.5 6 -92.5 18s-54.833 29.333 -77.5 52s-40 48.667 -52 78s-18 60 -18 92c0.666992 60 19.334 111.667 56.001 155s84.334 70.666 143.001 81.999c14.667 54.667 42.834 99.667 84.501 135s91.167 55 148.5 59
c56.667 3.33301 108 -9.83398 154 -39.501s79.667 -70.834 101 -123.501c61.333 -13.333 111.166 -43 149.499 -89s58.166 -100.333 59.499 -163zM288.003 96.0059h64v-64h-64v64zM480.003 96.0059h64v-64h-64v64zM384.003 0.00585938h64v-64h-64v64zM576.003 0.00585938h64
v-64h-64v64zM672.003 96.0059h64v-64h-64v64z" />
    <glyph glyph-name="wind-power" unicode="&#xe6fd;" 
d="M160 832c21.333 0 32 -10.667 32 -32v-832c0 -21.333 -10.667 -32 -32 -32v0c-21.333 0 -32 10.667 -32 32v832c0 21.333 10.667 32 32 32zM576 477l128 12v238l-128 12v-262zM512 472v272l-192 18v-26h-64v96l617 -56c25.333 -2.66699 46 -13 62 -31
s24.333 -39.667 25 -65v-144c-0.666992 -25.333 -9 -47 -25 -65s-36.667 -28.333 -62 -31l-617 -56v288h64v-218zM768 495l99 9c8.66699 0.666992 15.667 4 21 10s8 13.333 8 22v144c0 8.66699 -2.66699 16 -8 22s-12.333 9.33301 -21 10l-99 9v-226z" />
    <glyph glyph-name="watch" unicode="&#xe6fe;" 
d="M512 128c72.667 2 133 27 181 75s73 108.333 75 181c-2 72.667 -27 133 -75 181s-108.333 73 -181 75c-72.667 -2 -133 -27 -181 -75s-73 -108.333 -75 -181c2 -72.667 27 -133 75 -181s108.333 -73 181 -75zM512 64c-90.667 2 -166.167 33.167 -226.5 93.5
s-91.5 135.833 -93.5 226.5c2 90.667 33.167 166.167 93.5 226.5s135.833 91.5 226.5 93.5c90.667 -2 166.167 -33.167 226.5 -93.5s91.5 -135.833 93.5 -226.5c-2 -90.667 -33.167 -166.167 -93.5 -226.5s-135.833 -91.5 -226.5 -93.5zM480 544c9.33301 0 17 -3 23 -9
s9 -13.667 9 -23v-160c0 -9.33301 -3 -17 -9 -23s-13.667 -9 -23 -9s-17 3 -23 9s-9 13.667 -9 23v160c0 9.33301 3 17 9 23s13.667 9 23 9zM480 384h128c21.333 0 32 -10.667 32 -32v0c0 -21.333 -10.667 -32 -32 -32h-128c-21.333 0 -32 10.667 -32 32v0
c0 21.333 10.667 32 32 32zM608 640v128h-192v-128h-64v192h320v-192h-64zM416 128v-128h192v128h64v-192h-320v192h64z" />
    <glyph glyph-name="watch-1" unicode="&#xe6ff;" 
d="M512 128c72.667 2 133 27 181 75s73 108.333 75 181c-2 72.667 -27 133 -75 181s-108.333 73 -181 75c-72.667 -2 -133 -27 -181 -75s-73 -108.333 -75 -181c2 -72.667 27 -133 75 -181s108.333 -73 181 -75zM512 64c-90.667 2 -166.167 33.167 -226.5 93.5
s-91.5 135.833 -93.5 226.5c2 90.667 33.167 166.167 93.5 226.5s135.833 91.5 226.5 93.5c90.667 -2 166.167 -33.167 226.5 -93.5s91.5 -135.833 93.5 -226.5c-2 -90.667 -33.167 -166.167 -93.5 -226.5s-135.833 -91.5 -226.5 -93.5zM608 640v128h-192v-128h-64v192h320
v-192h-64zM416 128v-128h192v128h64v-192h-320v192h64zM512 512c-9.33301 0 -17 3 -23 9s-9 13.667 -9 23s3 17 9 23s13.667 9 23 9s17 -3 23 -9s9 -13.667 9 -23s-3 -17 -9 -23s-13.667 -9 -23 -9zM512 192c-9.33301 0 -17 3 -23 9s-9 13.667 -9 23s3 17 9 23
s13.667 9 23 9s17 -3 23 -9s9 -13.667 9 -23s-3 -17 -9 -23s-13.667 -9 -23 -9zM384 384c0 -9.33301 -3 -17 -9 -23s-13.667 -9 -23 -9s-17 3 -23 9s-9 13.667 -9 23s3 17 9 23s13.667 9 23 9s17 -3 23 -9s9 -13.667 9 -23zM704 384c0 -9.33301 -3 -17 -9 -23
s-13.667 -9 -23 -9s-17 3 -23 9s-9 13.667 -9 23s3 17 9 23s13.667 9 23 9s17 -3 23 -9s9 -13.667 9 -23zM422 474c-9.33301 -8 -19.832 -10.499 -31.499 -7.49902s-19.167 10.5 -22.5 22.5s-0.666016 22.333 8.00098 31c6.66699 6 14.167 9 22.5 9
s15.666 -3.16699 21.999 -9.5s9.66602 -13.833 9.99902 -22.5s-2.5 -16.334 -8.5 -23.001zM648.001 248.001c-8.66699 -8.66699 -19.001 -11.335 -31.001 -8.00195s-19.5 10.833 -22.5 22.5s-0.5 22.167 7.5 31.5c6.66699 6 14.334 8.83301 23.001 8.5
s16.167 -3.66602 22.5 -9.99902s9.5 -13.666 9.5 -21.999s-3 -15.833 -9 -22.5zM422 294c8 -9.33301 10.499 -19.832 7.49902 -31.499s-10.5 -19.167 -22.5 -22.5s-22.333 -0.666016 -31 8.00098c-6 6.66699 -9 14.167 -9 22.5s3.16699 15.666 9.5 21.999
s13.833 9.66602 22.5 9.99902s16.334 -2.5 23.001 -8.5zM647.999 520.001c8 -9.33301 10.502 -19.834 7.50195 -31.501s-10.333 -19 -22 -22s-22.167 -0.5 -31.5 7.5c-6 6.66699 -8.83301 14.334 -8.5 23.001s3.66602 16.167 9.99902 22.5s13.666 9.5 21.999 9.5
s15.833 -3 22.5 -9z" />
    <glyph glyph-name="timer" unicode="&#xe702;" 
d="M512 0c90.667 2 166.167 33.167 226.5 93.5s91.5 135.833 93.5 226.5c-2 90.667 -33.167 166.167 -93.5 226.5s-135.833 91.5 -226.5 93.5c-90.667 -2 -166.167 -33.167 -226.5 -93.5s-91.5 -135.833 -93.5 -226.5c2 -90.667 33.167 -166.167 93.5 -226.5
s135.833 -91.5 226.5 -93.5zM512 -64c-108.667 2.66699 -199.167 40.167 -271.5 112.5s-109.833 162.833 -112.5 271.5c2.66699 108.667 40.167 199.167 112.5 271.5s162.833 109.833 271.5 112.5c108.667 -2.66699 199.167 -40.167 271.5 -112.5
s109.833 -162.833 112.5 -271.5c-2.66699 -108.667 -40.167 -199.167 -112.5 -271.5s-162.833 -109.833 -271.5 -112.5zM512 576c9.33301 0 17 -3 23 -9s9 -13.667 9 -23l-1 -224c0 -9.33301 -3 -17 -9 -23s-13.5 -9 -22.5 -9s-16.5 3 -22.5 9s-9.33301 13.667 -10 23l1 224
c0 9.33301 3 17 9 23s13.667 9 23 9zM448 320c0.666992 -18 7 -33 19 -45s27 -18 45 -18s33 6 45 18s18 27 18 45s-6 33 -18 45s-27 18 -45 18s-33 -6 -45 -18s-18.333 -27 -19 -45zM544 768v-128h-64v128h-96c-9.33301 0 -17 3 -23 9s-9 13.667 -9 23s3 17 9 23
s13.667 9 23 9h256c9.33301 0 17 -3 23 -9s9 -13.667 9 -23s-3 -17 -9 -23s-13.667 -9 -23 -9h-96z" />
    <glyph glyph-name="alarm-clock" unicode="&#xe703;" 
d="M512 64c90.667 2 166.167 33.167 226.5 93.5s91.5 135.833 93.5 226.5c-2 90.667 -33.167 166.167 -93.5 226.5s-135.833 91.5 -226.5 93.5c-90.667 -2 -166.167 -33.167 -226.5 -93.5s-91.5 -135.833 -93.5 -226.5c2 -90.667 33.167 -166.167 93.5 -226.5
s135.833 -91.5 226.5 -93.5zM512 0c-108.667 2.66699 -199.167 40.167 -271.5 112.5s-109.833 162.833 -112.5 271.5c2.66699 108.667 40.167 199.167 112.5 271.5s162.833 109.833 271.5 112.5c108.667 -2.66699 199.167 -40.167 271.5 -112.5
s109.833 -162.833 112.5 -271.5c-2.66699 -108.667 -40.167 -199.167 -112.5 -271.5s-162.833 -109.833 -271.5 -112.5zM292 71l56 -32l-48 -83c-6.66699 -10 -16 -15 -28 -15s-21 5.16699 -27 15.5s-6.33301 20.833 -1 31.5zM732 71l-56 -32l48 -83
c6.66699 -10 16 -15 28 -15s21 5.16699 27 15.5s6.33301 20.833 1 31.5zM512 384h160c9.33301 0 17 -3 23 -9s9 -13.667 9 -23s-3 -17 -9 -23s-13.667 -9 -23 -9h-192c-9.33301 0 -17 3 -23 9s-9 13.667 -9 23v224c0 9.33301 3 17 9 23s13.667 9 23 9s17 -3 23 -9
s9 -13.667 9 -23v-192zM90 584c-20.667 32.667 -29.1689 67.332 -25.502 103.999s19.334 68.834 47.001 96.501s59.834 43.334 96.501 47.001s71.334 -4.83301 104.001 -25.5l-47 -47c-18.667 8.66699 -37.834 11.334 -57.501 8.00098s-36.667 -12.333 -51 -27
s-23.333 -31.834 -27 -51.501s-1.16699 -38.834 7.5 -57.501l-46 -47h-1zM925.998 583.998c20.667 32.667 29.166 67.332 25.499 103.999s-19.167 68.834 -46.5 96.501s-59.5 43.334 -96.5 47.001s-71.833 -4.83301 -104.5 -25.5l47 -47
c18.667 8.66699 37.834 11.334 57.501 8.00098s36.834 -12.333 51.501 -27s23.667 -31.834 27 -51.501s0.666016 -38.834 -8.00098 -57.501z" />
    <glyph glyph-name="map-location" unicode="&#xe704;" 
d="M800 480c-2 81.333 -30.1709 149.166 -84.5039 203.499s-122.166 82.5 -203.499 84.5c-81.333 -2 -149.166 -30.167 -203.499 -84.5s-82.5 -122.166 -84.5 -203.499c0 -59.333 23.833 -127.166 71.5 -203.499s119.834 -160.833 216.501 -253.5
c96.667 92.667 168.834 177.167 216.501 253.5s71.5 144.166 71.5 203.499zM511.996 -64c-234.667 213.333 -352 394.666 -352 543.999c2.66699 100 37 183 103 249s149 100.333 249 103c100 -2.66699 183 -37 249 -103s100.333 -149 103 -249
c0 -149.333 -117.333 -330.666 -352 -543.999zM511.996 448c18 0.666992 33 7 45 19s18 27 18 45s-6 33 -18 45s-27 18 -45 18s-33 -6 -45 -18s-18 -27 -18 -45s6 -33 18 -45s27 -18.333 45 -19zM511.996 384c-36 0.666992 -66.167 13.167 -90.5 37.5
s-36.833 54.5 -37.5 90.5c0.666992 36 13.167 66.167 37.5 90.5s54.5 36.833 90.5 37.5c36 -0.666992 66.167 -13.167 90.5 -37.5s36.833 -54.5 37.5 -90.5c-0.666992 -36 -13.167 -66.167 -37.5 -90.5s-54.5 -36.833 -90.5 -37.5zM857.996 192l102 -256h-288v64h-320v-64
h-288l102 256h692zM788.996 192h-554l-76 -192h706z" />
    <glyph glyph-name="delete-location" unicode="&#xe705;" 
d="M288 0h448c21.333 -0 32 -10.667 32 -32v0c0 -21.333 -10.667 -32 -32 -32h-448c-21.333 0 -32 10.667 -32 32v0c0 21.333 10.667 32 32 32zM800 480c-2 81.333 -30.1709 149.166 -84.5039 203.499s-122.166 82.5 -203.499 84.5
c-81.333 -2 -149.166 -30.167 -203.499 -84.5s-82.5 -122.166 -84.5 -203.499c0 -59.333 23.833 -127.166 71.5 -203.499s119.834 -160.833 216.501 -253.5c96.667 92.667 168.834 177.167 216.501 253.5s71.5 144.166 71.5 203.499zM511.996 -64
c-234.667 213.333 -352 394.666 -352 543.999c2.66699 100 37 183 103 249s149 100.333 249 103c100 -2.66699 183 -37 249 -103s100.333 -149 103 -249c0 -149.333 -117.333 -330.666 -352 -543.999zM383.996 512h256c21.333 0 32 -10.667 32 -32v0
c0 -21.333 -10.667 -32 -32 -32h-256c-21.333 0 -32 10.667 -32 32v0c0 21.333 10.667 32 32 32z" />
    <glyph glyph-name="add-location" unicode="&#xe706;" 
d="M288 0h448c21.333 -0 32 -10.667 32 -32v0c0 -21.333 -10.667 -32 -32 -32h-448c-21.333 0 -32 10.667 -32 32v0c0 21.333 10.667 32 32 32zM800 480c-2 81.333 -30.1709 149.166 -84.5039 203.499s-122.166 82.5 -203.499 84.5
c-81.333 -2 -149.166 -30.167 -203.499 -84.5s-82.5 -122.166 -84.5 -203.499c0 -59.333 23.833 -127.166 71.5 -203.499s119.834 -160.833 216.501 -253.5c96.667 92.667 168.834 177.167 216.501 253.5s71.5 144.166 71.5 203.499zM511.996 -64
c-234.667 213.333 -352 394.666 -352 543.999c2.66699 100 37 183 103 249s149 100.333 249 103c100 -2.66699 183 -37 249 -103s100.333 -149 103 -249c0 -149.333 -117.333 -330.666 -352 -543.999zM543.996 512h96c9.33301 0 17 -3 23 -9s9 -13.667 9 -23s-3 -17 -9 -23
s-13.667 -9 -23 -9h-96v-96c0 -9.33301 -3 -17 -9 -23s-13.667 -9 -23 -9s-17 3 -23 9s-9 13.667 -9 23v96h-96c-9.33301 0 -17 3 -23 9s-9 13.667 -9 23s3 17 9 23s13.667 9 23 9h96v96c0 9.33301 3 17 9 23s13.667 9 23 9s17 -3 23 -9s9 -13.667 9 -23v-96z" />
    <glyph glyph-name="location-information" unicode="&#xe707;" 
d="M288 0h448c21.333 -0 32 -10.667 32 -32v0c0 -21.333 -10.667 -32 -32 -32h-448c-21.333 0 -32 10.667 -32 32v0c0 21.333 10.667 32 32 32zM800 480c-2 81.333 -30.1709 149.166 -84.5039 203.499s-122.166 82.5 -203.499 84.5
c-81.333 -2 -149.166 -30.167 -203.499 -84.5s-82.5 -122.166 -84.5 -203.499c0 -59.333 23.833 -127.166 71.5 -203.499s119.834 -160.833 216.501 -253.5c96.667 92.667 168.834 177.167 216.501 253.5s71.5 144.166 71.5 203.499zM511.996 -64
c-234.667 213.333 -352 394.666 -352 543.999c2.66699 100 37 183 103 249s149 100.333 249 103c100 -2.66699 183 -37 249 -103s100.333 -149 103 -249c0 -149.333 -117.333 -330.666 -352 -543.999zM511.996 384c27.333 0.666992 50 10 68 28s27 40.667 27 68
s-9 50 -27 68s-40.667 27 -68 27s-50 -9 -68 -27s-27 -40.667 -27 -68s9 -50 27 -68s40.667 -27.333 68 -28zM511.996 320c-45.333 1.33301 -83 17 -113 47s-45.667 67.667 -47 113c1.33301 45.333 17 83 47 113s67.667 45.667 113 47c45.333 -1.33301 83 -17 113 -47
s45.667 -67.667 47 -113c-1.33301 -45.333 -17 -83 -47 -113s-67.667 -45.667 -113 -47z" />
    <glyph glyph-name="location-outline" unicode="&#xe708;" 
d="M800 480c-2 81.333 -30.1709 149.166 -84.5039 203.499s-122.166 82.5 -203.499 84.5c-81.333 -2 -149.166 -30.167 -203.499 -84.5s-82.5 -122.166 -84.5 -203.499c0 -59.333 23.833 -127.166 71.5 -203.499s119.834 -160.833 216.501 -253.5
c96.667 92.667 168.834 177.167 216.501 253.5s71.5 144.166 71.5 203.499zM511.996 -64c-234.667 213.333 -352 394.666 -352 543.999c2.66699 100 37 183 103 249s149 100.333 249 103c100 -2.66699 183 -37 249 -103s100.333 -149 103 -249
c0 -149.333 -117.333 -330.666 -352 -543.999zM511.996 384c27.333 0.666992 50 10 68 28s27 40.667 27 68s-9 50 -27 68s-40.667 27 -68 27s-50 -9 -68 -27s-27 -40.667 -27 -68s9 -50 27 -68s40.667 -27.333 68 -28zM511.996 320c-45.333 1.33301 -83 17 -113 47
s-45.667 67.667 -47 113c1.33301 45.333 17 83 47 113s67.667 45.667 113 47c45.333 -1.33301 83 -17 113 -47s45.667 -67.667 47 -113c-1.33301 -45.333 -17 -83 -47 -113s-67.667 -45.667 -113 -47z" />
    <glyph glyph-name="place" unicode="&#xe709;" 
d="M512 384c54.667 1.33301 100 20 136 56s54.667 81.333 56 136c-1.33301 54.667 -20 100 -56 136s-81.333 54.667 -136 56c-54.667 -1.33301 -100 -20 -136 -56s-54.667 -81.333 -56 -136c1.33301 -54.667 20 -100 56 -136s81.333 -54.667 136 -56zM512 320
c-72.667 2 -133 27 -181 75s-73 108.333 -75 181c2 72.667 27 133 75 181s108.333 73 181 75c72.667 -2 133 -27 181 -75s73 -108.333 75 -181c-2 -72.667 -27 -133 -75 -181s-108.333 -73 -181 -75zM512 384c9.33301 0 17 -3 23 -9s9 -13.667 9 -23v-256
c0 -9.33301 -3 -17 -9 -23s-13.667 -9 -23 -9s-17 3 -23 9s-9 13.667 -9 23v256c0 9.33301 3 17 9 23s13.667 9 23 9zM384 247l0.00195312 -65c-58 -10 -104.333 -23.167 -139 -39.5s-52.334 -31.833 -53.001 -46.5c2 -20.667 32.833 -41.5 92.5 -62.5
s135.5 -32.167 227.5 -33.5c92 1.33301 167.833 12.5 227.5 33.5s90.5 41.833 92.5 62.5c-0.666992 14.667 -18.334 30.167 -53.001 46.5s-81 29.5 -139 39.5v65c76 -11.333 137.333 -30.5 184 -57.5s70.667 -58.167 72 -93.5c-2.66699 -45.333 -40.167 -83 -112.5 -113
s-162.833 -45.667 -271.5 -47c-108.667 1.33301 -199.167 17 -271.5 47s-109.833 67.667 -112.5 113c1.33301 35.333 25.333 66.5 72 93.5s108 46.167 184 57.5z" />
    <glyph glyph-name="discover" unicode="&#xe70a;" 
d="M512 0c108.667 2.66699 199.167 40.167 271.5 112.5s109.833 162.833 112.5 271.5c-2.66699 108.667 -40.167 199.167 -112.5 271.5s-162.833 109.833 -271.5 112.5c-108.667 -2.66699 -199.167 -40.167 -271.5 -112.5s-109.833 -162.833 -112.5 -271.5
c2.66699 -108.667 40.167 -199.167 112.5 -271.5s162.833 -109.833 271.5 -112.5zM512 -64c-126.667 3.33301 -232.167 47.166 -316.5 131.499s-128.166 189.833 -131.499 316.5c3.33301 126.667 47.166 232.167 131.499 316.5s189.833 128.166 316.5 131.499
c126.667 -3.33301 232.167 -47.166 316.5 -131.499s128.166 -189.833 131.499 -316.5c-3.33301 -126.667 -47.166 -232.167 -131.499 -316.5s-189.833 -128.166 -316.5 -131.499zM726 581c-49.333 -114 -101.832 -198.667 -157.499 -254s-140.167 -107.666 -253.5 -156.999
c-5.33301 -2 -10 -1 -14 3s-5 8.66699 -3 14c49.333 113.333 101.666 197.666 156.999 252.999s140 108 254 158c5.33301 2 10 1 14 -3s5 -8.66699 3 -14z" />
    <glyph glyph-name="first-aid-kit" unicode="&#xe70b;" 
d="M192 640c-18 -0.666992 -33 -7 -45 -19s-18.333 -27 -19 -45v-448c0.666992 -18 7 -33 19 -45s27 -18.333 45 -19h640c18 0.666992 33 7 45 19s18.333 27 19 45v448c-0.666992 18 -7 33 -19 45s-27 18.333 -45 19h-640zM192 704h640
c36 -0.666992 66.167 -13.167 90.5 -37.5s36.833 -54.5 37.5 -90.5v-448c-0.666992 -36 -13.167 -66.167 -37.5 -90.5s-54.5 -36.833 -90.5 -37.5h-640c-36 0.666992 -66.167 13.167 -90.5 37.5s-36.833 54.5 -37.5 90.5v448c0.666992 36 13.167 66.167 37.5 90.5
s54.5 36.833 90.5 37.5zM544 384h96c9.33301 0 17 -3 23 -9s9 -13.667 9 -23s-3 -17 -9 -23s-13.667 -9 -23 -9h-96v-96c0 -9.33301 -3 -17 -9 -23s-13.667 -9 -23 -9s-17 3 -23 9s-9 13.667 -9 23v96h-96c-9.33301 0 -17 3 -23 9s-9 13.667 -9 23s3 17 9 23s13.667 9 23 9
h96v96c0 9.33301 3 17 9 23s13.667 9 23 9s17 -3 23 -9s9 -13.667 9 -23v-96zM352 768v-64h320v64h-320zM320 832h384c9.33301 0 17 -3 23 -9s9 -13.667 9 -23v-128c0 -9.33301 -3 -17 -9 -23s-13.667 -9 -23 -9h-384c-9.33301 0 -17 3 -23 9s-9 13.667 -9 23v128
c0 9.33301 3 17 9 23s13.667 9 23 9z" />
    <glyph glyph-name="trophy-1" unicode="&#xe70c;" 
d="M320 768v-256c1.33301 -54.667 20 -100 56 -136s81.333 -54.667 136 -56c54.667 1.33301 100 20 136 56s54.667 81.333 56 136v256h-384zM288 832h448c9.33301 0 17 -3 23 -9s9 -13.667 9 -23v-288c-2 -72.667 -27 -133 -75 -181s-108.333 -73 -181 -75
c-72.667 2 -133 27 -181 75s-73 108.333 -75 181v288c0 9.33301 3 17 9 23s13.667 9 23 9zM769 640h93.001c-6 -76 -20.333 -125 -43 -147c-14.667 -14.667 -31.334 -26 -50.001 -34v181zM896.001 704l-190.999 -0.000976562v-320c63.333 0 116.666 21.333 159.999 64
c38.667 38.667 59.667 113 63 223c0 8.66699 -3.16699 16.334 -9.5 23.001s-13.833 10 -22.5 10zM256.002 639.999h-94c6.66699 -76 21 -125 43 -147c15.333 -14.667 32.333 -26 51 -34v181zM129.002 703.999l191.002 -0.000976562v-320c-64 0 -117.333 21.333 -160 64
c-38.667 38.667 -59.667 113 -63 223c-0.666992 8.66699 2.16602 16.334 8.49902 23.001s14.166 10 23.499 10zM480.004 319.998h64v-192h-64v192zM256.004 -0.00195312h512c9.33301 0 17 -3 23 -9s9 -13.667 9 -23s-3 -17 -9 -23s-13.667 -9 -23 -9h-512
c-9.33301 0 -17 3 -23 9s-9 13.667 -9 23s3 17 9 23s13.667 9 23 9zM384.004 127.998h256c9.33301 0 17 -3 23 -9s9 -13.667 9 -23s-3 -17 -9 -23s-13.667 -9 -23 -9h-256c-9.33301 0 -17 3 -23 9s-9 13.667 -9 23s3 17 9 23s13.667 9 23 9z" />
    <glyph glyph-name="trophy" unicode="&#xe70d;" 
d="M480 0l0.00488281 194c-52.667 7.33301 -98.334 28 -137.001 62s-65 76.667 -79 128h-33c-21.333 0 -40.333 6.16699 -57 18.5s-28.334 28.833 -35.001 49.5l-45 153c-4 12 -4.83301 23.833 -2.5 35.5s7.16602 22.5 14.499 32.5s16.333 17.667 27 23s22 8 34 8h89v96
c0 9.33301 3 17 9 23s13.667 9 23 9h448c9.33301 0 17 -3 23 -9s9 -13.667 9 -23v-96h89c12 0 23.333 -2.66699 34 -8s19.667 -13 27 -23s12.166 -20.833 14.499 -32.5s1.5 -23.5 -2.5 -35.5l-46 -153c-6 -20 -17.333 -36.333 -34 -49s-35.667 -19 -57 -19h-33
c-14 -51.333 -40.333 -94 -79 -128s-84.334 -54.667 -137.001 -62v-194h128c9.33301 0 17 -3 23 -9s9 -13.667 9 -23s-3 -17 -9 -23s-13.667 -9 -23 -9h-320c-9.33301 0 -17 3 -23 9s-9 13.667 -9 23s3 17 9 23s13.667 9 23 9h128zM704.005 448v320h-384v-320
c1.33301 -54.667 20 -100 56 -136s81.333 -54.667 136 -56c54.667 1.33301 100 20 136 56s54.667 81.333 56 136zM768.005 448h25c6.66699 0 12.834 2 18.501 6s9.5 9.66699 11.5 17l46 153c1.33301 4 0.666016 7.66699 -2.00098 11s-6 5 -10 5h-89v-192zM256.005 448v192
h-89c-4 0 -7.33301 -1.66699 -10 -5s-3.33398 -7 -2.00098 -11l46 -153c2 -7.33301 5.83301 -13 11.5 -17s11.834 -6 18.501 -6h25z" />
    <glyph glyph-name="medal" unicode="&#xe70e;" 
d="M512 0c72.667 2 133 27 181 75s73 108.333 75 181c-2 72.667 -27 133 -75 181s-108.333 73 -181 75c-72.667 -2 -133 -27 -181 -75s-73 -108.333 -75 -181c2 -72.667 27 -133 75 -181s108.333 -73 181 -75zM512 -64c-90.667 2 -166.167 33.167 -226.5 93.5
s-91.5 135.833 -93.5 226.5c2 90.667 33.167 166.167 93.5 226.5s135.833 91.5 226.5 93.5c90.667 -2 166.167 -33.167 226.5 -93.5s91.5 -135.833 93.5 -226.5c-2 -90.667 -33.167 -166.167 -93.5 -226.5s-135.833 -91.5 -226.5 -93.5zM576 768h-127.998v-200
c21.333 5.33301 42.666 8 63.999 8c19.333 0 40.666 -2.66699 63.999 -8v200zM640.002 768v-220c24.667 -8.66699 50.667 -20 78 -34l39 254h-117zM384.002 768h-117l39 -254c27.333 14 53.333 25.333 78 34v220zM229.002 832h566.002c9.33301 0 17.166 -3.66699 23.499 -11
s8.83301 -16 7.5 -26l-58 -379c-114 64 -199.333 96 -256 96s-142 -32 -256 -96l-58 379c-1.33301 10 1.16699 18.667 7.5 26s14.166 11 23.499 11z" />
    </font>
</defs>
</svg>
